<svg width="62" height="29" viewBox="0 0 62 29" fill="none" xmlns="http://www.w3.org/2000/svg">
    <path d="M9.536 20.442L2.588 15.942V14.106L9.536 9.606V12L4.766 14.988V15.06L9.536 18.048V20.442Z" fill="#F99D2A"/>
    <g clip-path="url(#clip0_301_1784)">
        <path fill-rule="evenodd" clip-rule="evenodd" d="M24.7077 22.4998H16.91C16.1314 22.4998 15.5 21.8684 15.5 21.0899V7.9104C15.5 7.13187 16.1314 6.50049 16.91 6.50049H30.09C30.8686 6.50049 31.5 7.13187 31.5 7.9104V21.0899C31.5 21.1779 31.4919 21.264 31.4765 21.3475C31.1075 21.3144 30.8073 21.0078 30.7644 20.6424V16.4249C30.7644 15.4073 29.9061 14.5307 28.8824 14.5307H24.7077C23.6839 14.5307 22.8257 15.4134 22.8257 16.4249V20.6178C22.8257 21.6293 23.6962 22.4998 24.7077 22.4998ZM30.7527 22.3347C30.5551 22.4401 30.3295 22.4998 30.09 22.4998H28.8824V21.3535H24.7077C24.2957 21.3535 23.972 21.0109 23.972 20.6057V16.425C23.972 16.0198 24.2933 15.6771 24.7077 15.6771H28.8824C29.2949 15.6771 29.618 16.0204 29.618 16.425V20.6424C29.618 21.4515 30.1262 22.0588 30.7527 22.3347Z" fill="#F99D2A"/>
    </g>
    <path d="M36.832 23.88L42.754 8.22H44.968L39.046 23.88H36.832Z" fill="#F99D2A"/>
    <path d="M52.264 20.442V18.048L57.034 15.06V14.988L52.264 12V9.606L59.212 14.106V15.942L52.264 20.442Z" fill="#F99D2A"/>
    <defs>
        <clipPath id="clip0_301_1784">
        <rect width="16" height="15.9993" fill="white" transform="translate(15.5 6.50049)"/>
    </clipPath>
    </defs>
</svg>
