<svg width="100%" height="100%" viewBox="0 0 800 800" xmlns="http://www.w3.org/2000/svg">
    <style>
        #machine-blueprint path,
        #machine-blueprint rect {
            fill:none;
            stroke:currentColor;
            stroke-width:2.5px;
            stroke-linecap:round;
            stroke-miterlimit:1.5;
        }
    </style>
    <g id="machine-blueprint">
        <path d="M641.84,485.123c2.481,49.597 -1.729,64.268 -1.575,91.627c0.164,29.177 2.597,28.921 1.959,60.508"/>
        <path d="M641.515,485.168c-48.672,0.425 -129.35,-4.679 -136.957,-3.994c-32.028,2.885 -31.853,-0.248 -64.008,0.481" />
        <path d="M439.608,482.905c-0.157,12.198 -1.454,113.063 -1.644,152.467" />
        <path d="M439.384,637.591c157.235,0.472 187.196,1.682 203.461,2.339" />
        <path d="M630.885,642.003l0.077,12.108" />
        <path d="M584.665,640.951l-0.601,11.451" />
        <path d="M584.586,654.066c12.592,0.555 12.325,1.021 46.157,1.486" />
        <path d="M508.322,638.879c0.099,4.356 0.198,8.713 0.298,13.07" />
        <path d="M508.21,654.167c-26.099,0.51 -25.908,-0.085 -51.88,-1.013" />
        <path d="M455.571,652.951c-0.153,-5.143 -0.307,-8.286 -0.46,-13.429" />
        <path d="M644.133,633.389c4.584,2.695 25.281,6.439 25.511,5.436c2.378,-10.393 9.851,-35.032 17.193,-63.466c10.629,-41.164 9.49,-41.331 20.624,-82.263" />
        <path d="M708.706,491.698c-14.026,-6.151 -17.844,-5.079 -32.003,-10.103" />
        <path d="M676.427,481.912c-4.477,24.596 -14.57,55.436 -34.183,129.677" />
        <path d="M674.024,497.124c-6.146,7.855 -7.029,10.174 -9.973,-3.261c-4.891,10.919 -6.337,13.781 -10.729,0.025c-2.833,7.989 -7.543,11.997 -11.269,-1.272" />
        <path d="M663.965,493.999c-6.726,36.117 -7.044,35.779 -14.734,88.85" />
        <path d="M653.233,495.462c-5.676,43.845 -7.552,62.627 -11.883,106.491" />
        <path d="M437.061,629.629c-4.118,-0.881 -17.386,-0.49 -17.408,-1.326c-0.504,-18.959 2.614,-55.452 1.549,-89.591c-0.069,-2.225 9.855,-0.564 17.771,-1.029" />
        <path d="M441.578,175.289c8.547,-0.171 40.092,-0.257 40.092,-0.257l0,-17.323c0,-0 -23.665,-0.109 -40.092,-0.199" />
        <path d="M443.169,324.677c8.546,-0.17 40.091,-0.256 40.091,-0.256l0,-17.323c0,-0 -23.664,-0.109 -40.091,-0.199" />
        <path d="M500.474,276.775c-10.23,0.17 -47.991,0.256 -47.991,0.256l0,17.323c0,0 28.327,0.109 47.991,0.199" />
        <path d="M503.049,356.09c-10.843,0.17 -50.863,0.256 -50.863,0.256l-0,17.323c-0,0 30.022,0.109 50.863,0.199" />
        <path d="M81.886,623.629c-3.085,-0.431 -12.926,-0.24 -12.967,-0.649c-0.94,-9.285 -1.241,-30.905 -0.037,-43.877c0.101,-1.087 5.816,-0.276 11.68,-0.504l1.324,45.03Z" />
        <path d="M154.631,633.629c-2.673,-0.632 -11.142,-0.352 -11.193,-0.952c-1.151,-13.607 -2.206,-45.292 -1.646,-64.302c0.047,-1.594 4.999,-0.405 10.041,-0.739l2.798,65.993Z" />
        <path d="M387.864,537.663c0,-0 17.736,-1.007 17.621,1.008c-1.682,29.529 2.268,71.014 -0.733,88.716c-0.301,1.779 -17.141,1.7 -17.141,1.7" />
        <path d="M419.36,617.039c-1.429,0.087 -4.218,0.563 -12.89,0.508" />
        <path d="M420.163,550.358c-2.386,0.939 -9.842,-0.555 -13.479,0.36" />
        <path d="M531.19,585.358l-70.506,0.36" />
        <path d="M531.19,591.358l-70.32,0.54" />
        <path d="M531.19,597.358l-70.506,0.36" />
        <path d="M532.163,603.358l-71.479,1.36" />
        <path d="M532.163,609.358l-71.479,1.36" />
        <path d="M532.163,615.358l-70.506,0.36" />
        <path d="M532.163,620.358l-70.506,0.36" />
        <path d="M46.939,522.263c-0.564,-38.428 -0.015,-44.833 0.307,-53.742c0.577,-15.977 6.454,-16.499 22.041,-17.419c9.403,-0.555 114.234,2.808 156.58,2.941c46.727,0.146 137.179,1.347 144.803,1.134c12.525,-0.349 17.636,7.478 17.609,15.582c-0.049,14.26 -0.627,38.672 -2.251,67.005c-0,-0 -0.294,91.666 1.129,103.479c1.423,11.813 -9.404,12.506 -18.296,13.25c0,0 -156.24,-0.77 -170.24,-1.033c-25.561,-0.48 -100.028,1.257 -129.186,0.023c-15.583,-0.659 -20.989,-1.625 -22.113,-14.784c-0.034,-0.402 -0.715,-108.026 -0.715,-108.026" />
        <path d="M68.028,450.977c0.222,-17.808 0.165,-17.66 0.405,-26.459" />
        <path d="M68.298,423.269c25.285,1.766 42.132,-0.542 69.604,0.332c5.593,0.177 57.008,1.813 69.935,1.769" />
        <path d="M209.427,425.17c-0.201,13.851 -0.18,13.696 -0.747,27.459" />
        <path d="M67.7,422.106c-1.293,-2.105 -2.849,-4.043 -4.142,-6.148c-0.745,-1.212 -0.678,-1.13 -9.15,-15.245" />
        <path d="M210.041,424.146c5.491,-15.196 3.483,-8.011 8.3,-23.251" />
        <path d="M54.299,399.566c12.735,-1.52 36.296,-0.858 83.275,-0.564c50.517,0.316 73.186,1.288 80.487,1.463" />
        <path d="M369.945,453.762c0.057,-3.048 0.393,-20.934 0.439,-38.101" />
        <path d="M369.38,415.235c-9.852,1.18 -9.865,0.597 -124.017,1.429" />
        <path d="M244.275,417.946c-1.495,25.362 -1.357,25.298 -1.297,35.472" />
        <path d="M261.781,426.087l-6.56,0.169" />
        <path d="M262.927,426.98c-0.091,2.303 -0.435,4.593 -0.527,6.896c-0.04,0.981 -0.022,0.909 -0.285,12.268" />
        <path d="M260.847,447.832l-7.197,0.101" />
        <path d="M252.442,447.398c0.748,-9.967 0.484,-9.882 1.209,-19.9" />
        <path d="M258.037,428.806l-0.176,3.462" />
        <path d="M258.029,431.165l0.035,1.635" />
        <path d="M269.03,427.25c0.06,10.313 0.08,10.198 -0.134,20.405" />
        <path d="M269.899,425.628c1.754,-0.045 6.508,0.91 8.262,0.865" />
        <path d="M278.161,426.493c-0.738,11.367 0.484,10.266 0.129,21.518" />
        <path d="M278.107,448.348c-2.63,-0.081 -5.26,-0.163 -7.89,-0.244" />
        <path d="M348.696,424.465c22.691,0.868 13.226,24.006 0.211,23.34c-9.452,-0.484 -21.375,-17.502 -1.621,-23.442" />
        <path d="M456.54,493.426c13.021,0.535 7.589,14.795 0.122,14.384c-5.424,-0.298 -12.266,-10.786 -0.931,-14.447" />
        <path d="M456.54,513.426c13.021,0.535 7.589,14.795 0.122,14.384c-5.424,-0.298 -12.266,-10.786 -0.931,-14.447" />
        <path d="M456.54,534.426c13.021,0.535 7.589,14.795 0.122,14.384c-5.424,-0.298 -12.266,-10.786 -0.931,-14.447" />
        <path d="M349.072,436.44l-5.647,-3.61" />
        <path d="M312.911,425.247c19.596,3.744 11.325,21.85 1.564,23.09c-19.168,2.437 -18.808,-26.383 -1.564,-23.09Z" />
        <path d="M580.253,514.574c-1.863,2.014 -4.271,3.445 -6.778,3.763c-19.168,2.437 -16.96,-24.303 -1.564,-23.09c6.443,0.509 7.429,2.423 9.316,4.374" />
        <path d="M624.202,603.076c2.014,1.864 3.445,4.272 3.763,6.779c2.437,19.168 -24.303,16.959 -23.09,1.564c0.508,-6.444 2.423,-7.43 4.374,-9.316" />
        <path d="M311.742,435.874l-5.216,6.021" />
        <path d="M352.341,644.053c11.802,0.268 13.973,-3.331 14.661,-18.234c0.281,-6.069 0.316,-20.014 0.655,-30.337c0.133,-4.032 0.305,-35.671 0.451,-50.881c0.023,-2.423 -0.598,-15.007 -13.539,-15.434c-9.819,-0.324 -99.983,-0.356 -106.1,0.104c-8.38,0.631 -14.73,3.747 -14.494,13.916c0.574,24.838 -0.086,8.42 0.383,80.018c0.116,17.774 6.339,17.671 15.86,17.615c19.275,-0.112 60.12,2.281 102.123,3.233Z" />
        <path d="M146.289,349.418c-1.338,-0.057 -27.529,2.973 -28.631,-21.578c-4.969,-110.744 -3.234,-136.721 -3.719,-170.421c-0.397,-27.495 13.726,-28.672 32.868,-28.092c23.396,0.708 246.538,0.729 267.976,0.811c15.932,0.061 25.52,6.488 25.412,27.312c-0.052,10.07 0.967,156.703 1.354,173.515c0.284,12.355 -2.794,20.068 -24.483,21.57c-4.124,0.286 -256.585,-2.515 -270.777,-3.117Zm19.487,-20.792c21.221,2.911 70.126,8.082 116.902,8.782c48.02,0.719 93.959,-3.112 118.051,-6.285c16.008,-2.108 18.977,-9.698 21.245,-17.277c2.646,-8.845 4.529,-40.081 4.649,-69.401c0.119,-29.083 -1.497,-56.233 -5.824,-69.584c-2.847,-8.783 -10.166,-19.759 -22.05,-21.877c-29.412,-5.24 -71.293,-10.439 -115.8,-10.732c-43.028,-0.282 -88.707,4.151 -116.724,10.083c-13.382,2.833 -26.878,12.179 -28.52,22.501c-2.12,13.331 -2.475,40.303 -1.708,68.077c0.758,27.442 2.61,55.691 4.936,68.429c1.539,8.436 4.982,14.56 24.843,17.284Z" />
        <path d="M611.041,461.763c6.787,0.116 8.035,-1.452 8.431,-7.946c0.162,-2.645 0.182,-8.721 0.377,-13.219c0.076,-1.757 0.175,-15.544 0.259,-22.172c0.013,-1.056 -0.344,-6.539 -7.786,-6.725c-5.646,-0.141 -57.497,-0.155 -61.015,0.045c-4.819,0.275 -8.47,1.633 -8.335,6.064c0.33,10.823 -0.049,3.669 0.22,34.868c0.067,7.745 3.646,7.7 9.121,7.676c11.084,-0.049 34.573,0.994 58.728,1.409Z" />
        <path d="M529.218,627.061c7.403,0.112 8.765,-1.393 9.197,-7.624c0.176,-2.538 0.197,-8.368 0.41,-12.684c0.083,-1.686 0.191,-14.915 0.283,-21.274c0.015,-1.013 -0.375,-6.275 -8.492,-6.453c-6.159,-0.136 -65.717,-0.194 -69.552,0.043c-4.257,0.264 -6.239,1.567 -6.092,5.818c0.36,10.386 -0.053,4.521 0.24,34.457c0.073,7.432 3.977,7.389 9.949,7.365c12.09,-0.047 37.711,-0.046 64.057,0.352Z" />
        <path d="M140.642,584.624c-0.689,0.118 -7.136,0.366 -6.99,0.198c-0.118,-4.899 -0.181,-9.011 -0.006,-12.924l6.939,-0.142" />
        <path d="M255.113,528.37c-1.189,-1.72 6.468,-12.526 6.468,-12.526l77.688,0.478l10.882,11.907" />
        <path d="M163.257,388.352c0.285,0.729 0.127,5.313 0.127,5.313l-7.328,-0.233l-5.013,-5.051l12.214,-0.029Z" />
        <path d="M163.287,369.23c0.286,0.73 0.127,5.313 0.127,5.313l-7.327,-0.233l-5.013,-5.051l12.213,-0.029Z" />
        <path d="M190.15,384.648c-0.285,-0.73 -0.127,-5.313 -0.127,-5.313l7.76,0.232l5.012,5.051l-12.645,0.03Z" />
        <path d="M189.959,363.928c-0.285,-0.73 -0.127,-5.314 -0.127,-5.314l7.76,0.233l5.012,5.051l-12.645,0.03Z" />
        <path d="M190.927,399.837c-0.286,-0.73 -0.22,-1.803 -0.22,-1.803l20.358,0.203l3.306,1.984l-23.444,-0.384Z" />
        <path d="M162.754,349.776c0.286,0.729 0.14,4.651 0.14,4.651l-9.753,-0.097l-5.013,-5.051l14.626,0.497Z" />
        <path d="M81.91,589.049l59.234,-0.293m0.498,26.595c-6.086,0.245 -60.972,-0.242 -59.681,-0.589" />
        <path d="M154.91,570.445l78.075,-0.689m1.657,60.506c-10.656,2.149 -79.665,0.614 -79.665,0.614" />
        <path d="M133.058,575.011c-51.501,-2.803 -31.963,-46.265 -83.068,-52.559c-21.163,-2.606 -33.026,21.759 -33.453,29.317c-1.35,23.907 26.941,31.191 29.238,31.226" />
        <path d="M132.863,581.855c-53.78,-7.108 -39.842,-31.777 -66.886,-46.433c-26.995,-14.631 -38.551,6.23 -39.692,9.836c-5.716,18.058 10.09,24.772 20.297,28.55" />
        <path d="M144.101,536.097c-0.022,1.271 -0.066,3.813 -1.504,4.559c-1.55,0.805 -6.148,1.059 -7.793,0.267c-1.646,-0.792 -1.016,-3.693 -2.081,-5.019c-1.064,-1.327 -2.558,-2.934 -4.307,-2.942c-1.909,-0.008 -5.426,2.967 -7.147,2.892c-1.552,-0.068 -3.372,-1.967 -3.18,-3.344c0.192,-1.377 4.056,-3.187 4.331,-4.919c0.275,-1.732 -1.291,-4.604 -2.678,-5.472c-1.387,-0.869 -4.646,1.505 -5.642,0.261c-0.996,-1.244 -1.378,-6.338 -0.334,-7.726c1.044,-1.388 5.292,0.517 6.598,-0.602c1.306,-1.118 1.481,-4.114 1.237,-6.109c-0.244,-1.995 -2.999,-3.916 -2.7,-5.862c0.299,-1.947 2.95,-5.504 4.493,-5.82c1.543,-0.315 2.811,3.724 4.766,3.929c1.955,0.205 5.722,-1.077 6.962,-2.7c1.239,-1.624 -0.873,-5.714 0.475,-7.04c1.347,-1.327 5.955,-2.155 7.61,-0.921c1.655,1.233 0.909,6.644 2.32,8.322c1.358,1.616 4.286,2.179 6.146,1.749c1.86,-0.43 3.036,-4.523 5.015,-4.331c1.978,0.192 6.785,3.826 6.857,5.483c0.072,1.657 -5.611,2.388 -6.426,4.457c-0.815,2.07 0.099,6.481 1.536,7.959c1.437,1.478 5.859,-0.658 7.085,0.911c1.226,1.568 1.371,7.107 0.272,8.5c-1.099,1.393 -5.293,-1.072 -6.866,-0.141c-1.573,0.931 -2.927,3.859 -2.573,5.727c0.354,1.867 4.835,3.538 4.699,5.476c-0.137,1.937 -3.659,5.832 -5.519,6.148c-1.86,0.316 -3.702,-3.637 -5.644,-4.253c-1.915,-0.606 -4.644,0.172 -6.008,0.561m-7.064,-25.29c9.132,-3.193 12.231,4.595 9.202,9.613c-3.621,5.995 -18.726,3.132 -12.759,-6.088" />
        <path d="M181.128,509.661c-0.209,0.72 -0.627,2.158 -1.507,2.373c-0.948,0.232 -3.429,-0.291 -4.18,-0.98c-0.751,-0.689 0.035,-2.246 -0.325,-3.154c-0.359,-0.909 -0.903,-2.039 -1.83,-2.297c-1.013,-0.282 -3.343,0.898 -4.245,0.605c-0.813,-0.264 -1.485,-1.607 -1.169,-2.362c0.316,-0.754 2.649,-1.222 3.064,-2.166c0.416,-0.944 0.03,-2.803 -0.572,-3.498c-0.601,-0.695 -2.701,0.18 -3.037,-0.671c-0.335,-0.852 0.253,-3.802 1.024,-4.439c0.77,-0.637 2.73,1.062 3.597,0.616c0.867,-0.446 1.425,-2.122 1.606,-3.292c0.18,-1.169 -0.984,-2.66 -0.523,-3.723c0.461,-1.063 2.422,-2.699 3.29,-2.654c0.869,0.045 0.915,2.524 1.921,2.924c1.006,0.4 3.206,0.219 4.117,-0.523c0.91,-0.743 0.424,-3.374 1.346,-3.932c0.922,-0.558 3.497,-0.359 4.184,0.582c0.688,0.941 -0.549,3.907 -0.061,5.066c0.47,1.115 1.938,1.861 2.992,1.886c1.055,0.026 2.315,-2.129 3.336,-1.733c1.021,0.397 3.009,3.16 2.79,4.112c-0.219,0.951 -3.351,0.542 -4.105,1.599c-0.754,1.058 -0.954,3.697 -0.421,4.746c0.533,1.049 3.213,0.477 3.621,1.546c0.407,1.07 -0.376,4.238 -1.176,4.87c-0.8,0.632 -2.644,-1.378 -3.625,-1.077c-0.98,0.3 -2.154,1.768 -2.256,2.88c-0.102,1.113 2.018,2.713 1.645,3.794c-0.374,1.081 -2.849,2.783 -3.886,2.693c-1.037,-0.091 -1.401,-2.605 -2.337,-3.236c-0.922,-0.623 -2.492,-0.577 -3.278,-0.555m0.179,-15.396c5.345,-0.488 5.781,4.388 3.392,6.799c-2.854,2.881 -10.43,-0.94 -5.829,-5.312" />
        <path d="M572.538,500.397c9.375,0.199 27.322,1.094 29.698,1.123c19.775,0.238 22.665,9.638 22.262,21.572c-0.226,6.656 -0.768,67.795 -1.282,86.743c-0.341,12.568 -13.147,12.167 -13.175,-0.406c-0.038,-16.558 1.089,-39.992 1.771,-76.806c0.216,-11.67 2.776,-19.652 -15.873,-18.606c-0.704,0.039 -15.833,-0.492 -23.662,-0.493c-9.577,-0.001 -9.807,-13.341 0.261,-13.127Z" />
        <path d="M624.802,483.926c0.243,-27.367 1.487,-50.835 1.73,-78.202c-30.716,0.41 -44.416,-1.931 -88.251,-2.77c-0.585,25.041 -1.171,52.682 -1.757,77.723" />
        <path d="M625.652,434.114c8.262,0.181 5.727,-12.075 5.538,-16.262c-0.218,-4.86 -3.476,-4.431 -4.797,-4.876" />
        <path d="M682.984,386.551c-0.18,8.262 12.075,5.727 16.263,5.538c4.86,-0.218 4.431,-3.476 4.876,-4.797" />
        <path d="M551.409,467.622c0.328,-0.098 3.768,-1.12 2.928,3.122c-0.698,3.522 -5.772,-0.314 -3.924,-1.679" />
        <path d="M561.948,468.87c4.92,-1.502 2.985,3.113 2.11,3.924c-1.602,1.485 -5.161,-0.968 -2.295,-2.928" />
        <path d="M574.226,469.014c4.253,0.122 0.531,4.177 -0.54,3.991c-1.187,-0.207 -3.953,-3.657 -0.211,-3.519" />
        <path d="M584.243,469.63c4.49,0.357 0.544,3.694 0.076,3.737c-1.893,0.177 -4.46,-4.361 -0,-2.581" />
        <path d="M595.407,469.377c4.691,1.895 0.355,6.109 -1.544,4.252c-2.056,-2.011 -1.365,-3.244 1.637,-3.29" />
        <path d="M605.483,470.035c0.313,0.061 3.497,0.678 1.755,3.577c-0.711,1.183 -6.652,-0.095 -2.515,-2.523" />
        <path d="M617.28,469.613c5.238,4.864 -1.417,4.583 -1.865,3.974c-1.276,-1.735 -0.423,-2.892 0.743,-2.725" />
        <path d="M614.737,438.523l-7.406,0.246c0,0 -2.748,-5.916 -3.107,-9.573c-0.127,0.625 -0.133,0.6 -4.11,16.475l-0.646,-15.922c-2.25,13.367 -1.901,13.921 -2.913,14.512c-1.269,0.74 -0.765,-0.908 -2.27,-21.675c-0.379,2.449 -0.234,2.434 -4.363,30.752c-1.838,-18.89 -1.211,-18.852 -4.152,-35.466c-1.615,15.974 -1.413,15.658 -3.531,31.501c-0.561,-5.947 -1.121,-11.894 -1.681,-17.841c-1.772,12.922 -1.357,15.457 -2.595,13.637c-0.328,-0.482 -0.882,-16.361 -3.892,-22.028c-1.596,-3.004 -3.971,12.317 -5.248,19.563c0.643,-10.673 0.551,-10.512 -0.531,-21.058c-0.682,2.992 -1.546,5.869 -2.228,8.86c-0.346,1.516 -0.312,1.408 -4.205,19.01c-0.57,-7.68 -1.14,-15.359 -1.711,-23.039c-3.436,22.696 -3.38,22.549 -3.812,24.852l-1.109,-22.347l-0.836,9.154c-12.713,1.451 -6.643,0.903 -7.221,-0.572" />
        <path d="M761.936,387.893c-36.918,1.043 -222.782,-0.595 -258.644,-1.616c-0.123,-1.915 -3.103,-85.915 -2.448,-121.651c41.724,-0.783 77.197,-0.873 121.626,-0.021c6.285,0.12 12.812,0.208 19.46,0.27c20.306,9.153 84.543,41.39 121.968,60.389c0.089,21.598 -0.328,44.894 -1.962,62.629Zm-2.294,-2.443c1.429,-16.937 1.822,-38.458 1.762,-58.649c-37.277,-18.914 -99.476,-50.119 -120.024,-59.431c-6.474,-0.061 -12.831,-0.148 -18.958,-0.266c-43.535,-0.834 -78.464,-0.764 -119.116,-0.023c-0.444,33.612 1.88,103.221 2.388,116.759c40.111,1.004 213.229,2.516 253.948,1.61Z"/>
        <path d="M685.571,433.293c8.568,1.272 12.821,3.395 18.977,8.027c8.86,6.666 8.973,23.833 0.382,28.974c-6.321,3.782 -14.09,7.049 -23.721,0.529c-8.782,-5.946 -13.957,-28.946 6.714,-62.087" />
        <path d="M664.122,443.799c0,0 2.822,7.022 3.463,14.489c1.856,21.593 -29.991,21.649 -34.476,4.23c-5.958,-23.137 18.371,-30.465 42.729,-30.103" />
        <path d="M696.948,401.711c4.439,-4.028 15.299,-10.456 29.588,0.467c16.208,12.389 -2.704,47.491 -28.304,27.165c-14.334,-11.381 -9.736,-31.056 -9.033,-36.319" />
        <path d="M648.154,434.365c-4.617,-8.375 -16.73,-5.407 -16.73,-5.407l-0.057,-9.616c-0,0 17.949,-4.768 28.669,13.286" />
        <path d="M697.084,393.079c-3.863,19.868 2.91,27.071 7.188,30.398c13.417,10.431 24.51,-7.023 17.068,-14.125c-11.097,-10.59 -22.054,0.55 -23.908,2.738" />
        <path d="M689.841,421.57c-7.258,10.161 -13.808,36.522 -3.526,42.991c3.764,2.369 6.651,2.101 11.467,-0.02c4.025,-1.773 5.064,-9.909 1.515,-13.445c-2.904,-2.894 -5.73,-6.723 -16.99,-8.177" />
        <path d="M673.158,442.24c-1.531,-0.082 -14.71,-0.167 -22.16,3.51c-12.162,6.004 -11.197,10.289 -9.05,15.536c3.444,8.418 26.638,8.054 13.011,-16.596" />
        <path d="M480.154,481.968c1.52,-33.892 1.725,-72.452 0.564,-107.162" />
        <path d="M457.441,481.337c2.925,-36.402 4.002,-70.953 1.97,-105.947l-0,0.046" />
        <path d="M480.154,356.405l-0.093,-31.375" />
        <path d="M479.61,307.296l-0.092,-13.549" />
        <path d="M459.206,356.26l-0.452,-31.096l0,0.011" />
        <path d="M458.662,307.234l-0.451,-13.429l-0,0.005" />
        <path d="M479.493,276.885c1.52,-15.054 2.386,-87.949 1.225,-103.367" />
        <path d="M458.703,276.594c0.403,-19.544 0.021,-100.816 0.021,-100.816" />
        <path d="M626.873,265.17c-0.035,-1.03 -0.744,-1.845 -0.696,-23.625" />
        <path d="M525.324,265.528c-0.003,-2.167 -0.155,-2.043 -0,-23.406" />
        <path d="M626.844,243.334c-3.115,-0.091 -47.478,0.275 -55.425,0.829c-8.166,0.569 -37.476,-0.051 -46.33,0.307" />
        <path d="M620.788,242.873c0.422,-32.77 -0.789,-32.629 -0.227,-65.279c0.409,-23.78 0.906,-23.622 0.317,-47.3" />
        <path d="M530.868,243.802c2.121,-38.226 -0.709,-69.298 -0.064,-111.039" />
        <path d="M524.98,114.073c8.256,-0.388 103.83,-0.177 103.83,-0.177l0.067,17.07c-3.994,-0.254 -5.018,1.206 -51.044,0.061c-11.348,-0.282 -9.418,-0.199 -53.188,0.891l0.335,-17.845Z" />
        <path d="M620.254,113.137c0.118,-14.849 -10.093,-26.858 -44.248,-27.131c-26.7,-0.214 -40.334,11.044 -41.602,27.456" />
        <path d="M599.286,143.756c7.102,9.121 -3.905,9.595 -5.498,7.282c-3.356,-4.873 3.172,-6.572 3.769,-6.727" />
        <path d="M589.268,158.883c16.559,3.65 8.147,16.751 0.885,15.228c-4.738,-0.994 -10.934,-10.962 -1.965,-15.517" />
        <path d="M544.439,233.871c-7.796,-1.057 -3.701,-9.973 1.926,-7.189c0.513,0.254 10.056,8.813 -1.926,7.189Z" />
        <path d="M557.427,226.987c-0.469,-0.56 -6.505,-7.992 0.8,-9.09c7.95,-1.194 10.45,12.784 -0.8,9.09Z" />
        <path d="M608.299,153.455c0.608,0.299 8.452,4.17 2.622,8.054c-5.491,3.659 -9.654,-6.35 -5.619,-7.439" />
        <path d="M553.09,205.78c-13.181,6.735 -14.767,-7.039 -6.344,-9.229c5.794,-1.507 12.767,4.778 4.399,9.406" />
        <path d="M556.976,178.59c-8.993,4.372 -0.994,9.901 0.107,9.959c1.385,0.073 9.514,-3.246 1.024,-8.29" />
        <path d="M600.402,180.585c-10.61,0.968 -6.19,10.735 -2.318,12.12c2.816,1.008 12.977,-2.346 2.367,-10.603" />
        <path d="M648.363,268.705l0,-50.292" />
        <path d="M649.043,178.177c-0.255,-14.688 -0.722,-93.72 -1.15,-98.693c-0.591,-6.87 -6.441,-8.976 -9.841,-8.912c-7.934,0.151 -20.778,2.679 -47.646,0.122c-11.828,-1.125 -11.174,7.966 -11.342,15.422" />
        <path d="M658.329,217.34l0,56.408" />
        <path d="M658.588,176.419c0.901,-17.189 0.464,-86.166 -0.863,-101.278c-0.542,-6.162 -5.305,-14.101 -12.522,-14.171c-8.014,-0.076 -23.458,0.415 -55.385,0.151c-19.384,-0.16 -22.348,1.16 -21.813,23.179" />
        <path d="M664.166,213.218c-31.589,10.594 -35.415,-24.387 -19.599,-32.045c28.941,-14.013 38.819,25.596 15.969,32.817" />
        <path d="M653.247,196.672c-2.785,3.133 -5.571,6.266 -8.356,9.399" />
        <path d="M640.813,201.821l-0.052,0.894" />
        <path d="M640.015,195.18c-0.042,0.599 0.088,0.487 0.03,1.138" />
        <path d="M641.751,189.574l0.03,0.148" />
        <path d="M646.029,186.287c0.411,0.097 0.188,0.193 0.325,0.598" />
        <path d="M651.57,183.502c0.358,0.798 0.379,0.623 0.509,1.411" />
        <path d="M657.406,183.34c0.012,0.35 0.025,0.699 0.037,1.049" />
        <path d="M662.814,185.172l0.17,0.347" />
        <path d="M668.303,189.264c-0.012,0.106 -0.025,0.212 -0.037,0.317" />
        <path d="M668.894,195.742l-0.066,0.443" />
        <path d="M668.296,202.116l-0.429,0.325" />
        <path d="M664.225,206.755c0.012,-0.071 0.025,-0.143 0.037,-0.214" />
        <path d="M785.03,286.905c-17.87,-4.044 -44.375,-6.569 -60.943,-18.791c-17.853,-13.17 -18.857,-20.77 -27.512,-49.329c24.552,30.408 54.146,50.367 88.455,68.12Z" />
        <path d="M759.298,270.581c-0.957,-8.025 4.886,-48.502 5.349,-49.393" />
        <path d="M764.765,221.521c-0.634,0.669 -3.251,3.429 -7.083,9.089c-1.41,-1.869 -2.819,-3.738 -4.229,-5.608c4.618,-4.078 4.269,-4.197 7.73,-9.106c3.464,2.735 3.888,4.06 3.76,3.66" />
        <path d="M758.323,229.483c-1.008,4.397 -4.343,37.473 -4.292,38.21" />
        <path d="M733.404,273.625c-2.133,6.812 -8.874,2.237 -9.515,1.802c-3.415,-2.318 0.496,-6.388 -0.015,-6.449" />
        <path d="M727.908,277.879c-5.913,9.03 -6.64,9.631 -6.923,8.783" />
        <path d="M724.096,276.683c-7.798,7.338 -7.667,8.992 -7.905,8.117" />
        <path d="M711.765,285.524c5.256,-5.342 15.721,8.065 5.032,9.012c-0.724,0.064 -5.102,0.451 -7.041,-5.732c-0.818,-2.608 1.904,-3.253 2.563,-5.437" />
        <path d="M719.427,296.109c3.977,4.434 4,4.213 7.684,8.958l-0.577,-1.52" />
        <path d="M722.049,290.887c5.919,6.618 5.612,6.732 11.111,13.584" />
        <path d="M725.012,306.709c0.864,-0.44 8.526,-4.337 12.116,0.037c1.849,2.253 0.877,10.327 -0.421,5.599" />
        <path d="M715.168,329.944c33.359,4.951 28.844,44.425 -3.708,40.969c-31.398,-3.333 -26.628,-45.471 3.708,-40.969Z" />
        <path d="M559.084,337.918c18.31,16.76 -2.819,42.625 -21.296,27.204c-17.822,-14.875 4.645,-42.446 21.296,-27.204Zm-13.191,14.089c-3.463,4.233 -3.25,4.311 -6.254,8.849c-4.266,-6.361 -3.616,-6.76 -2.705,-14.399c0.611,0.411 8.283,5.579 7.792,4.898m4.418,3.877c4.233,3.463 4.312,3.249 8.849,6.254c-6.361,4.266 -6.759,3.615 -14.399,2.704c0.411,-0.611 5.579,-8.283 4.898,-7.792m2.731,-4.557c3.463,-4.233 3.25,-4.312 6.254,-8.849c4.266,6.361 3.615,6.76 2.704,14.399c-0.611,-0.411 -8.283,-5.579 -7.792,-4.898m-4.647,-3.984c-4.233,-3.463 -4.312,-3.25 -8.849,-6.254c6.361,-4.266 6.759,-3.616 14.399,-2.705c-0.411,0.611 -5.579,8.283 -4.898,7.792" />
        <path d="M641.203,290.668c43.351,39.31 -8.574,101.754 -52.321,65.584c-42.195,-34.888 12.899,-101.332 52.321,-65.584Z" />
        <path d="M713.124,348.587c4.662,-1.392 3.553,3.751 1.587,4.357c-5.34,1.646 -2.032,-4.561 -2.028,-4.589" />
        <path d="M710.168,346.204c-0.659,-0.827 -9.179,-11.525 -0.728,-13.187c6.371,-1.254 5.941,10.12 3.669,10.633" />
        <path d="M718.473,346.621c10.179,-10.53 15.637,-1.386 12.98,1.409c-3.016,3.172 -3.066,4.137 -7.237,2.972c-4.723,-1.32 -4.808,-1.096 -5.101,-1.401" />
        <path d="M718.186,355.041c0.503,0.774 8.582,13.204 -0.704,11.508c-0.929,-0.17 -3.117,-0.569 -3.692,-11.206" />
        <path d="M708.054,355.01c-5.608,10.399 -12.451,2.934 -12.337,1.664c0.408,-4.569 8.804,-7.459 12.175,-6.454" />
        <path d="M537.46,417.651c-8.764,8.535 -19.419,13.413 -23.401,26.086c-0.921,2.934 -5.266,16.764 8.359,37.519c0.147,0.225 0.048,-1.006 0.196,-0.781m26.695,-94.232c0.401,6.758 -0.353,12.21 -1.887,16.759" />
        <path d="M537.733,407.393c-8.478,11.585 -23.707,19.949 -29.483,36.176c-2.668,7.495 -3.801,17.284 6.718,35.984m28.385,-93.394c0.845,6.315 0.104,12.191 -2.132,16.757" />
        <path d="M537.787,385.712c3.947,27.278 -26.324,26.106 -35.145,56.775c-0.794,2.761 -5.928,18.13 4.518,37.066" />
        <path d="M531.51,385.517c1.745,19.897 -20.718,26.315 -32.457,49.179c-1.327,2.585 -9.14,23.045 2.12,44.857" />
        <path d="M524.513,385.391c2.848,20.177 -25.054,22.748 -33.811,56.286c-0.72,2.755 -6.486,19.002 3.501,37.876" />
        <path d="M610.951,290.768c11.873,-5.245 16.479,12.042 7.594,15.433c-10.992,4.196 -19.231,-10.292 -7.594,-15.433Z" />
        <path d="M620.565,343.408c11.793,6.598 -0.104,21.335 -8.475,16.061c-10.355,-6.525 -3.084,-22.529 8.475,-16.061Z" />
        <path d="M596.039,328.799c13.667,3.438 7.293,20.613 -2.613,17.602c-12.254,-3.723 -10.784,-20.972 2.613,-17.602Z" />
        <path d="M596.83,319.759c-11.318,6.355 -17.554,-10.413 -9.034,-14.637c10.541,-5.226 20.127,8.409 9.034,14.637Z" />
        <path d="M643.157,314.798c-6.57,11.193 -20.409,-0.144 -15.18,-8.088c6.468,-9.827 21.62,-2.884 15.18,8.088Z" />
        <path d="M638.809,326.578c-8.096,-3.204 -16.782,9.774 -5.823,15.471c10.534,5.476 20.577,-9.633 5.823,-15.471Z" />
        <path d="M615.375,318.933c7.628,-0.441 6.01,8.227 3.337,9.195c-3.379,1.223 -10.009,-1.194 -6.647,-6.235" />
        <path d="M593.853,287.508l-56.499,49.716" />
        <path d="M618.035,367.141l-66.771,3.211" />
        <path d="M414.434,353.464c-0.096,20.114 -0.038,20.215 9.252,38.127c33.478,64.545 -31.373,84.077 -34.621,84.38c-0.273,0.026 0.804,-0.654 0.531,-0.628" />
        <path d="M407.053,354.288c2.132,23.081 -0.887,23.547 10.642,43.74c18.728,32.799 -0.859,55.478 -7.402,60.713c-6.717,5.374 -20.245,10.941 -21.577,10.933" />
        <path d="M400.161,354.944c1.403,35.527 4.437,36.197 12.262,51.462c8.978,17.513 4.886,26.15 -1.145,38.937c-5.519,11.7 -15.525,13.384 -24.364,18.41" />
        <path d="M393.311,352.968c-0.785,36.693 3.156,38.134 13.519,58.451c15.861,31.098 -24.345,48.392 -24.615,46.309" />
        <path d="M387.277,353.352c-1.139,7.944 0.662,25.007 0.769,27.082c1.203,23.326 16.087,34.194 14.426,48.942c-1.666,14.791 -24.049,25.836 -25.404,25.846" />
        <path d="M369.255,354.727c-0.03,13.124 2.146,18.845 15.509,23.536c0.567,0.199 1.132,0.463 1.731,0.502c0.299,0.02 -1.08,-0.459 -0.782,-0.44" />
        <path d="M359.702,353.827c-1.359,3.113 1.526,16.076 4.972,21.51c4.611,7.274 19.449,12.756 23.826,13.21" />
        <path d="M419.657,382.04c19.236,4.622 30.116,-8.059 32.185,-10.452" />
        <path d="M424.643,391.975c14.284,3.21 24.22,-3.68 32.89,-11.408" />
        <path d="M481.568,340.576c8.921,-15.759 20.733,-21.728 20.984,-22.007" />
        <path d="M482.902,354.902c8.862,-12.82 9.943,-11.787 20.089,-23.535" />
        <path d="M345.576,353.813c-0.057,31.43 -0.754,30.859 -1.327,62.437" />
        <path d="M323.398,353.184c-1.995,61.697 -2.274,62.604 -1.697,62.228" />
        <path d="M267.036,415.843l0,-63.21l0,0.016" />
        <path d="M295.398,416.064l0,-63.068" />
        <path d="M267.036,128.864l0,-34.881l0,0.009" />
        <path d="M295.398,128.985l0,-34.801" />
        <path d="M296.496,91.919c-12.097,-0.205 -11.846,0.218 -24.174,-0.131c-4.816,-0.136 -4.595,0.938 -9.378,0.024" />
        <path d="M262.192,91.43c-2.341,-29.738 -1.994,-29.745 -3.031,-33.212" />
        <path d="M297.725,90.989c7.232,-32.325 7.881,-32.19 8.066,-35.062" />
        <path d="M258.648,55.426c3.585,0.219 43.509,2.655 44.876,1.289" />
        <path d="M257.515,63.097l-142.682,-28.262l0.107,0" />
        <path d="M259.638,83.103l-0.56,0.024l-142.098,-39.309" />
        <path d="M109.791,32.148c4.982,2.462 5.784,6.928 4.297,10.425c-1.667,3.921 -6.213,6.623 -10.968,3.911c-7.11,-4.055 -6.261,-20.728 6.671,-14.336Z" />
        <path d="M304.55,67.034l14.199,-0" />
        <path d="M299.575,83.974l0.131,-0.143l20.177,0" />
        <rect x="320.217" y="57.096" width="34.054" height="36.947" />
        <path d="M108.986,47.434c-0.01,0.72 0.058,0.574 0.203,9.007c0.017,0.967 0.129,1.967 -0.131,2.899c-0.118,0.422 -0.204,-1.699 -0.322,-1.277" />
        <path d="M104.106,46.861l-0.382,13.135" />
        <path d="M100.837,61.654c19.067,-5.102 14.372,8.832 10.106,10.653c-7.031,3.003 -20.293,-4.806 -10.118,-11.249" />
        <path d="M116.646,65.436c15.232,4.995 17.457,5.251 15.846,5.726" />
        <path d="M114.88,71.246c0.955,0.324 9.283,3.149 11.825,4.366" />
        <path d="M127.194,78.201c3.108,-10.399 16.572,-5.408 13.459,2.35c-2.817,7.022 -14.082,0.956 -12.087,-2.827" />
        <path d="M75.088,76.459c6.739,-3.701 11.73,7.024 3.078,9.425c-2.92,0.81 -13.537,-5.742 -2.613,-10.129" />
        <path d="M79.49,74.216c9.498,-7.17 8.623,-8.666 16.18,-10.271" />
        <path d="M97.663,70.005c-13.682,7.697 -19.329,10.25 -14.712,9.007" />
        <path d="M83.165,82.71c1.23,1.769 2.243,3.683 3.473,5.452c0.807,1.162 0.752,1.072 10.159,14.477c-2.282,1.305 -4.564,2.61 -6.846,3.915c-10.591,-19.705 -11.25,-19.068 -12.06,-20.814" />
        <path d="M133.697,83.736c-1.214,1.561 -1.115,1.533 -13.98,20.379c-1.611,-1.365 -3.222,-2.729 -4.833,-4.094c0.99,-1.476 11.194,-17.172 12.346,-20.627" />
        <path d="M163.76,398.366l0,-47.048" />
        <path d="M168.905,398.125l-0,-46.566" />
        <path d="M184.47,350.654l0,48.398l0,-0.282" />
        <path d="M189.917,399.212l-0,-48.922" />
        <path d="M334.544,715.537c-0.481,-1.018 -1.174,-18.103 -0.4,-23.52c0.203,-1.424 13.549,-0.01 15.632,5.805c2.944,8.218 -10.917,6.824 -12.013,6.714" />
        <path d="M381.986,702.078c-1.193,-0.196 -2.537,-0.155 -3.898,0.402c-7.475,3.057 -5.71,4.887 -7.202,12.818c0.542,-6.213 0.632,-6.071 -0.066,-12.193" />
        <path d="M431.038,704.017c0.093,-4.234 -11.784,3.417 -3.377,10.936c4.397,3.933 16.29,-4.898 3.738,-11.28" />
        <path d="M421.104,695.884c-4.505,-7.456 -11.758,4.733 -9.809,19.366m-4.445,-17.718c2.335,1.93 3.729,4.485 13.34,5.255" />
        <path d="M443.881,694.378c6.162,-14.876 -3.512,5.692 1.533,21.072" />
        <path d="M394.783,688.462c-0.51,-1.555 0.71,25.67 1.057,27.395m-6.962,-13.914c9.472,0.636 10.276,1.082 13.67,0.411" />
        <path d="M360.365,702.5c-11.953,2.998 -6.468,13.224 -2.664,13.59c7.116,0.684 10.438,-11.598 3.088,-12.559" />
        <path d="M469.803,703.414c-11.954,2.997 -6.468,13.224 -2.664,13.59c7.116,0.684 10.438,-11.598 3.087,-12.559" />
        <path d="M481.861,702.938c-0.907,7.274 -0.339,10.883 -0.338,12.573c0.012,-0.97 0.124,-9.811 5.057,-11.159c2.873,-0.785 1.989,5.31 1.749,10.603c0.109,-1.083 1.287,-12.736 5.597,-12.553c2.73,0.116 0.985,3.486 1.465,14.296" />
        <path d="M510.449,703.556c-4.806,-3.464 -10.53,4.566 -6.778,11.212c0.538,0.951 7.648,5.808 7.227,-11.535c-0.134,1.06 -2.01,15.908 5.141,12.159" />
        <path d="M525.974,714.757c-2.717,3.356 0.789,-39.235 -0.445,-22.078m-6.623,9.741c6.936,0.689 9.047,0.754 12.419,0.432" />
        <path d="M538.539,703.197c-0.084,1.068 0.004,0.914 -0.552,13.396l-0.421,-1.883m1.003,-20.933c0.516,-0.327 0.337,0.13 0.635,0.394" />
        <path d="M555.271,702.577c-1.94,-0.772 -9.674,-0.411 -10.661,8.278c-0.471,4.142 6.758,6.329 13.706,2.312" />
        <path d="M412.877,752.435c0.512,-1.37 2.619,-3.769 4.687,-21.814c3.564,5.611 3.387,5.614 5.073,11.956c4.457,-5.668 4.9,-5.32 7.71,-12.051c1.666,17.681 2.207,20.271 3.018,21.483" />
        <path d="M448.924,737.22c-4.04,-1.311 -7.336,7.653 -5.138,13.318c1.267,3.267 10.781,-0.643 7.799,-12.914c0.251,6.443 1.329,15.462 6.552,11.879" />
        <path d="M473.595,738.691c-4.525,-3.219 -10.234,4.327 -9.625,7.915c1.24,7.311 10.703,2.212 11.493,1.786" />
        <path d="M483.259,730.84c0.149,0.737 -0.134,11.299 -0.528,19.466c0.041,-1.166 0.389,-11.077 5.448,-12.891c2.77,-0.993 1.713,5.453 4.124,13.687" />
        <path d="M501.852,737.366c-0.037,0.556 -0.457,6.954 -0.457,6.954c-0.211,4.164 1.179,9.087 -0.665,5.274" />
        <path d="M511.768,737.2c0.078,1.031 0.085,1.124 -1.145,12.888c0.271,-1.081 3.275,-13.101 8.169,-11.751c3.22,0.887 -0.871,12.787 2.415,11.76" />
        <path d="M539.173,748.899c-3.907,3.289 -15.144,1.75 -11.268,-6.152c2.676,-5.456 7.97,-6.8 8.367,-4.088c0.006,0.037 1.892,5.944 -4.895,6.903" />
        <path d="M577.551,720.427c-5.078,-7.108 -16.664,0.728 -14.018,8.07c2.5,6.935 10.805,11.422 15.806,-8.217c-4.848,13.789 -6.081,29.979 -7.482,31.752" />
        <path d="M598.762,720.971c-12.676,-9.717 -14.723,24.089 -10.476,26.808c12.447,7.97 24.386,-15.392 8.464,-28.392" />
        <path d="M626.222,721.902c-8.949,-15.737 -25.708,27.381 -6.419,28.759c5.861,0.419 8.714,-7.656 9.184,-12.862c0.982,-10.89 -0.701,-13.748 -8.603,-19.318" />
        <path d="M454.615,701.544c0.063,-1.163 -0.712,4.201 -0.71,8.109c0.001,0.958 0.854,6.66 0.843,6.556m-0.42,-24.139c1.327,-1.173 1.236,1.407 1.295,1.419" />
        <path d="M500.152,730.707c0.723,-0.304 1.485,-0.859 1.184,0.417" />
        <path d="M642.979,717.501c-1.489,18.493 -1.489,28.471 -1.621,28.778c-1.728,4.042 0.018,-1.43 0.054,-1.542m-6.399,5.386c9.559,-1.478 9.572,-0.473 10.36,-0.735m-2.969,-31.943c-2.934,4.501 -3.371,4.61 -3.844,4.729" />
        <path d="M665.675,760.071c-32.008,12.923 -148.759,2.593 -216.221,9.638c-64.954,6.783 -40.556,-34.69 -127.8,-44.17" />
        <path d="M665.005,703.49c1.432,2.459 1.434,2.436 2.635,5.022" />
        <path d="M665.155,703.277c0.226,-0.225 2.672,-2.653 3.877,-0.908c0.724,1.048 -1.128,2.689 -1.316,2.856" />
        <path d="M674.61,700.166c-0.272,0.191 -2.729,1.923 -1.265,3.952c0.623,0.863 4.238,1.153 2.205,-3.404c0.213,0.183 1.498,1.49 3.046,1.286" />
        <path d="M682.287,701.13c-2.436,-2.996 -3.959,-6.039 -4.27,-6.593" />
        <path d="M676.501,698.281c2.396,-0.539 2.957,-1.137 5.453,-3.252" />
        <path d="M689.531,695.479c-2.2,2.451 -3.942,2.931 -4.344,-0.332c-0.14,-1.144 0.783,-2.461 1.337,-2.385c1.21,0.168 0.173,2.591 0.085,2.796" />
        <path d="M691.973,694.286c-0.612,-0.96 -1.224,-1.92 -1.836,-2.88l0.411,0.716c0.998,-3.342 2.724,-2.306 4.551,0.694" />
        <path d="M698.811,698.208c-2.943,1.094 -1.349,3.934 -0.722,4.364c0.273,0.187 3.676,1.239 1.334,-3.915c1.119,0.991 1.055,1.043 2.309,1.852c-2.179,-1.695 -2.478,-2.162 -4.162,-5.231" />
        <path d="M703.183,694.633c0.567,1.099 1.135,2.197 1.703,3.296c0.581,0.015 0.553,-0.008 1.088,-0.287" />
        <path d="M701.836,691.596l-0.182,0.23" />
        <path d="M706.272,691.821c0.991,1.924 0.976,1.897 1.924,3.811c-0.068,-0.277 -2.135,-8.618 2.089,-2.886c0.05,0.067 0.306,0.414 0.728,0.758c0.107,0.087 0.115,0.056 1.552,0.756" />
        <path d="M715.387,686.695c-4.03,-0.023 -2.459,3.466 -1.694,4.025c1.313,0.96 4.532,0.007 2.162,-4.297c2.93,5.87 4.858,7.337 1.803,7.8" />
        <path d="M695.095,683.217c1.704,3.287 1.686,3.266 3.433,6.538" />
        <path d="M694.367,687.526c2.939,-1.6 2.933,-1.537 6.046,-2.8" />
        <path d="M674.932,710.951c1.677,2.302 1.512,2.367 2.908,4.831" />
        <path d="M674.604,710.493c0.2,-0.185 1.826,-2.035 3.738,-1.076c2.135,1.071 -0.336,3.376 -0.547,3.573" />
        <path d="M688.011,708.544c-2,3.97 -6.22,2.602 -5.266,-0.647c0.618,-2.106 4.049,-1.374 2.14,1.583" />
        <path d="M690.897,707.133c-0.232,-0.333 -0.409,-0.701 -0.641,-1.034c-0.146,-0.209 -0.138,-0.191 -1.865,-2.58l0.699,0.881c0.477,-0.668 2.541,-4.482 5.865,0.731" />
    </g>
</svg>
