<svg xmlns:serif="http://www.serif.com/" xmlns="http://www.w3.org/2000/svg" xmlns:xlink="http://www.w3.org/1999/xlink" id="Layer_1" x="0px" y="0px" viewBox="0 0 595.28 595.27" xml:space="preserve"><path fill-rule="evenodd" clip-rule="evenodd" fill="#891B26" d="M595.28,58.13C595.28,26.05,569.23,0,537.15,0H58.13 C26.05,0,0,26.05,0,58.13v479.01c0,32.08,26.05,58.13,58.13,58.13h479.01c32.08,0,58.13-26.05,58.13-58.13V58.13H595.28z"></path><radialGradient id="AFF_PU_!" cx="0" cy="-123.3099" r="1" gradientTransform="matrix(603.5657 0 0 603.5643 431.899 74373.6406)" gradientUnits="userSpaceOnUse">	<stop offset="0" style="stop-color:#FFAE71"></stop>	<stop offset="1" style="stop-color:#FF9350"></stop></radialGradient><path fill-rule="evenodd" clip-rule="evenodd" fill="url(#AFF_PU_!)" d="M270.98,551.67L121.12,292.2L43.6,426.4v102.02 c0,12.83,10.42,23.25,23.25,23.25L270.98,551.67L270.98,551.67z M380.27,551.67h-86.41c0,0-111.93-193.86-149.44-258.72 c-7.35-12.72-7.35-28.39-0.01-41.11c13.56-23.47,31.35-54.24,31.35-54.24L380.27,551.67z M489.55,551.67h-86.41L188.46,175.6 L230.4,103L489.55,551.67z M551.68,470.04v58.38c0,12.83-10.42,23.25-23.25,23.25h-16L241.83,83.2l22.88-39.6h40.66L551.68,470.04z  M528.43,43.6H328.24l223.44,386.84V66.85C551.68,54.02,541.26,43.6,528.43,43.6z"></path></svg>