<svg xmlns:serif="http://www.serif.com/" xmlns="http://www.w3.org/2000/svg" xmlns:xlink="http://www.w3.org/1999/xlink" id="Layer_1" x="0px" y="0px" viewBox="0 0 595.28 595.27" xml:space="preserve"><path fill-rule="evenodd" clip-rule="evenodd" fill="#4E3188" d="M595.28,58.13C595.28,26.05,569.23,0,537.15,0H58.13 C26.05,0,0,26.05,0,58.13v479.01c0,32.08,26.05,58.13,58.13,58.13h479.01c32.08,0,58.13-26.05,58.13-58.13V58.13H595.28z"></path><radialGradient id="AFF_PH_1" cx="0" cy="-123.3099" r="1" gradientTransform="matrix(603.5599 0 0 603.5585 431.941 74372.8984)" gradientUnits="userSpaceOnUse">	<stop offset="0" style="stop-color:#F9A6FF"></stop>	<stop offset="1" style="stop-color:#EA73FF"></stop></radialGradient><path fill-rule="evenodd" clip-rule="evenodd" fill="url(#AFF_PH_1)" d="M551.68,377.91v150.51c0,12.68-10.17,23-22.79,23.25H375.18 L274.81,377.91H551.68z M352.31,551.67H80.37L216.41,316.4L352.31,551.67z M58.54,550.14c-8.23-3.15-14.21-10.84-14.88-20 L43.6,426.4L154.15,235h86.41L58.54,550.14z M319.58,234.64c7.53,0.03,14.73,4.45,18.62,11.01c0.04,0.07,0.12,0.2,0.12,0.2 l22.85,39.56c0,0,0.13,0.22,0.2,0.33c3.73,6.53,3.88,14.76,0.15,21.41c-7.66,13.39-15.43,26.73-23.15,40.09 c-3.79,6.5-10.96,10.74-18.59,10.83c-14.55,0.06-43.73,0.03-43.77,0.03c-7.53-0.03-14.85-4.05-18.74-10.6 c-0.09-0.14-0.25-0.43-0.25-0.43s-22.86-39.56-22.9-39.66c-3.74-6.53-3.73-14.97,0-21.62c0.05-0.1,0.17-0.29,0.17-0.29 s15.29-26.53,22.95-39.8c3.79-6.5,10.98-10.97,18.6-11.06c0.13,0,0.38-0.01,0.38-0.01l43.12,0.01H319.58z M535.92,44.83 L354.98,358.09h196.7V66.85C551.68,56.64,545.08,47.95,535.92,44.83z M264.7,43.6h249.06L379.07,276.8L254.54,61.2L264.7,43.6z  M320.61,215.2H165.58L243.09,81L320.61,215.2z"></path></svg>