<svg xmlns:serif="http://www.serif.com/" xmlns="http://www.w3.org/2000/svg" xmlns:xlink="http://www.w3.org/1999/xlink" id="Layer_1" x="0px" y="0px" viewBox="0 0 595.28 595.27" xml:space="preserve"><path fill-rule="evenodd" clip-rule="evenodd" fill="#134881" d="M595.28,58.13C595.28,26.05,569.23,0,537.15,0H58.13 C26.05,0,0,26.05,0,58.13v479.01c0,32.08,26.05,58.13,58.13,58.13h479.01c32.08,0,58.13-26.05,58.13-58.13V58.13H595.28z"></path><radialGradient id="AFF_D_1" cx="0" cy="841.9959" r="1" gradientTransform="matrix(603.5657 0 0 -603.5643 431.9415 508146.8438)" gradientUnits="userSpaceOnUse">	<stop offset="0" style="stop-color:#6BE1FB"></stop>	<stop offset="1" style="stop-color:#38BDFA"></stop></radialGradient><path fill-rule="evenodd" clip-rule="evenodd" fill="url(#AFF_D_1)" d="M551.68,528.6c-0.1,12.75-10.48,23.07-23.25,23.07H293.75 L193.44,377.93h358.24V528.6z M43.6,528.42V426.41L264.61,43.6h86.37L164.27,367l106.61,184.67H66.85 C54.02,551.67,43.6,541.25,43.6,528.42z M326.8,358.12h-87.33c-9.75,0-18.76-5.12-23.63-13.56c-4.88-8.44-4.88-18.84,0-27.28 c19.4-33.6,43.69-75.67,43.69-75.67L326.8,358.12z M528.42,43.6c12.77,0,23.15,10.32,23.25,23.07v291.45h-202L270.95,221.8 L373.84,43.6H528.42L528.42,43.6z"></path></svg>