<svg xmlns:serif="http://www.serif.com/" xmlns="http://www.w3.org/2000/svg" xmlns:xlink="http://www.w3.org/1999/xlink" id="Layer_1" x="0px" y="0px" viewBox="0 0 590.66 145.84" xml:space="preserve"><path fill="#235785" d="M95.71,81.97c0.35-5.98,3.35-11.26,7.88-15c4.43-3.67,10.41-5.93,16.92-5.93c6.51,0,12.49,2.26,16.92,5.93 c4.52,3.73,7.53,9.02,7.88,15c0.32,6.15-2.19,11.86-6.64,16.1c-4.52,4.31-10.95,7.01-18.16,7.01c-7.2,0-13.66-2.71-18.18-7.01 C97.9,93.84,95.36,88.12,95.71,81.97z"></path><path fill="#E87500" d="M56.24,94.11c0.06,2.34,0.82,6.88,1.95,10.46c2.5,7.69,6.67,14.72,12.2,20.62 c5.83,6.31,13.02,11.37,21.31,14.98c8.84,3.79,18.37,5.73,27.99,5.68c9.63,0.01,19.15-1.96,27.99-5.79 c8.07-3.48,15.33-8.6,21.32-15.03c5.67-6.17,9.75-13.14,12.18-20.66c1.2-3.8,1.97-7.66,2.27-11.54c0.87-11.35-1.99-22.68-8.15-32.25 c-3.77-5.9-8.56-11.08-14.17-15.29h0.02L103.79,2.23c-0.06-0.04-0.09-0.09-0.15-0.11c-3.77-2.83-10.1-2.83-14.24,0 c-4.18,2.86-4.65,7.6-0.93,10.6h-0.02l23.92,19.03l-72.91,0.07h-0.09c-6.04,0-11.83,3.88-12.97,8.76c-1.18,4.97,2.9,9.1,9.17,9.12 v0.04l36.96-0.07L6.59,99.18c-0.09,0.05-0.18,0.11-0.26,0.18c-6.22,4.65-8.24,12.4-4.32,17.3c3.97,4.97,12.44,4.99,18.73,0.02 L56.73,87.9C56.73,87.9,56.2,91.77,56.24,94.11L56.24,94.11z M148.73,107.12c-7.42,7.39-17.79,11.57-29.04,11.61 c-11.25,0.02-21.62-4.14-29.04-11.52c-3.48-3.43-6.19-7.57-7.93-12.13c-1.61-4.32-2.22-8.96-1.8-13.55 c0.39-4.49,1.74-8.85,3.97-12.76c2.25-3.95,5.24-7.44,8.81-10.26c7.22-5.75,16.39-8.86,26-8.86c9.61-0.02,18.78,3.06,25.98,8.8 c3.58,2.81,6.58,6.28,8.83,10.22c2.21,3.91,3.57,8.21,3.97,12.76c0.42,4.59-0.2,9.22-1.82,13.54 C154.92,99.54,152.22,103.69,148.73,107.12L148.73,107.12z"></path><path fill="#235785" d="M488.67,81.89c0.56-6.06,5.34-9.88,12.63-9.88s12.07,3.82,12.63,9.88H488.67z M513.19,96.79 c-1.88,4.49-6.27,7.14-12.27,7.14c-7.48,0-12.52-4.58-12.73-11.8h43.07V90c0-18.08-10.87-28.26-30.34-28.26 c-18.89,0-30.32,10.27-30.32,26.37c0,16.18,11.61,26.44,30.32,26.44c11.25,0,19.95-3.77,25.32-10.38L513.19,96.79z M297.61,81.91 c0.57-6.04,5.34-9.86,12.65-9.86c7.29,0,12.05,3.82,12.62,9.86H297.61z M322.13,96.83c-1.86,4.49-6.27,7.14-12.27,7.14 c-7.48,0-12.52-4.58-12.73-11.81h43.05v-2.11c0-18.11-10.85-28.28-30.33-28.28c-18.91,0-30.3,10.28-30.3,26.37 c0,16.19,11.6,26.43,30.3,26.43c11.23,0,19.95-3.75,25.34-10.36L322.13,96.83z M260.17,50.81h15.52v62.12h-15.52V50.81z  M344.05,67.32h15.61v3.69c5.54-5.77,12.18-8.68,19.66-8.68c8.62,0,15.15,2.92,18.52,7.88c2.82,4.11,3.01,9.04,3.01,15.55v27.17 H385.2V89.06c0-9.92-2.04-14.48-10.92-14.48c-8.99,0-14.62,5.23-14.62,14.02v24.32h-15.61V67.32z M451.15,88.88 c0,8.51-5.81,14.08-14.8,14.08c-8.99,0-14.81-5.39-14.81-13.99c0-8.72,5.73-14.1,14.81-14.1C445.33,74.87,451.15,80.36,451.15,88.88 z M451.15,69.38c-3.95-4.13-9.66-6.4-17.61-6.4c-17.12,0-28.82,10.33-28.82,25.81c0,15.18,11.61,25.8,28.55,25.8 c7.77,0,13.46-1.93,17.89-6.24v4.58h15.62V46.86l-15.62,3.95V69.38z M224.67,74.87c9.08,0,14.79,5.39,14.79,14.12 c0,8.6-5.8,13.97-14.79,13.97c-8.99,0-14.78-5.57-14.78-14.07C209.89,80.36,215.68,74.87,224.67,74.87z M209.89,50.81l-15.62-3.93 v66.06h15.62v-4.58c4.39,4.31,10.1,6.22,17.89,6.22c16.94,0,28.54-10.62,28.54-25.8c0-15.49-11.71-25.81-28.83-25.81 c-7.95,0-13.66,2.27-17.6,6.41V50.81z M535.11,112.94V67.32h15.63v2.83c4.68-5.51,9.63-8.26,15.26-8.26c1.13,0,2.54,0.18,4.39,0.36 v12.99c-1.5-0.18-3.17-0.18-4.96-0.18c-9.08,0-14.7,5.86-14.7,15.81v22.06H535.11z"></path><path fill="#216191" d="M583.74,58.28h0.58c0.38,0,0.67-0.09,0.87-0.29c0.2-0.22,0.31-0.5,0.29-0.79c0-0.38-0.11-0.65-0.29-0.79 c-0.2-0.14-0.51-0.22-0.95-0.22h-0.51L583.74,58.28z M587.02,57.2c0,0.87-0.42,1.48-1.24,1.8l1.97,3.11h-1.75l-1.53-2.67h-0.73v2.67 h-1.53v-7.07h2.11c0.91,0,1.61,0.2,2.04,0.58C586.8,55.96,587.02,56.48,587.02,57.2z M578.48,58.57c0-2.11,1.14-4.07,2.99-5.12 c0.94-0.52,1.99-0.79,3.07-0.79c1.11,0,2.13,0.27,3.06,0.79c0.91,0.54,1.64,1.26,2.19,2.16c0.58,0.92,0.87,1.91,0.87,2.96 c0,1.06-0.27,2.05-0.8,2.95c-0.57,0.89-1.34,1.63-2.26,2.17c-0.93,0.54-1.95,0.79-3.06,0.79c-1.13,0-2.15-0.25-3.07-0.79 c-0.93-0.52-1.65-1.24-2.18-2.16C578.75,60.63,578.47,59.61,578.48,58.57z M579.51,58.57c0,0.92,0.21,1.77,0.65,2.52 c0.44,0.72,1.04,1.33,1.82,1.8c0.83,0.43,1.68,0.65,2.56,0.65c1.81,0.01,3.51-0.92,4.45-2.45c0.44-0.76,0.65-1.61,0.65-2.52 c0-0.87-0.25-1.68-0.73-2.45c-0.43-0.75-1.06-1.37-1.82-1.8c-1.53-0.95-3.47-0.98-5.04-0.08c-0.78,0.43-1.43,1.05-1.9,1.8 C579.72,56.82,579.51,57.67,579.51,58.57z"></path></svg>