<svg xmlns="http://www.w3.org/2000/svg" xmlns:xlink="http://www.w3.org/1999/xlink" id="Layer_1" x="0px" y="0px" viewBox="0 0 128 128" xml:space="preserve"><path d="M13.5,120.7c1-0.1,1.6-0.6,1.6-1.4v-10.5c0-1.1,0-1.3-1.6-1.6v-0.6h1.7c2,0,2.5-0.1,2.5-0.1l0.1,0.1c0,0-0.7,0.8-0.7,2.7v10 c0,0.6-0.1,1.1-0.1,1.1l2.1,0.2l-0.1,0.6l-5.4,0.1v-0.6L13.5,120.7z M20.8,120.7c1-0.1,1.6-0.6,1.6-1.4v-9.9c0-1.5-0.4-2-1.8-2.2 v-0.6h0.7c1.1,0,2.2-0.1,2.2-0.1s0.3,0.5,0.8,1.1l8,9.2l0.9,1.2v-9.2c0-1,0-1.5-1.8-1.7v-0.6h4.2l0.1,0.3c0,0-1.5,0.4-1.5,2.2v12.2 h-0.6l-9.4-11c-0.3-0.3-0.6-0.7-0.8-1.1v10c0,0.7-0.1,1.2-0.1,1.2l2,0.1l-0.1,0.6l-4.3,0.1v-0.4L20.8,120.7z M37.7,120.7 c1-0.1,1.6-0.6,1.6-1.4v-10.5c0-1.1,0-1.3-1.6-1.6v-0.6h1.7c2,0,2.5-0.1,2.5-0.1l0.1,0.1c0,0-0.7,0.8-0.7,2.7v3.9h0.4 c0,0,0.4-0.2,0.7-0.6l4.3-4.3c0.4-0.4,0.4-1-0.6-1.1v-0.6h4.1l0.1,0.3c0,0-1.2,0.3-2.8,1.9l-4.2,4.1v0.2l5.3,6.1 c1,1.1,1.2,1.2,1.9,1.3h0.2l-0.1,0.7h-3.2l-0.1-0.1c0,0-0.2-0.7-1.7-2.3l-4.1-4.8h-0.4v5.2c0,0.6-0.1,1.1-0.1,1.1l2,0.2l-0.1,0.6 l-5.3,0.1v-0.5L37.7,120.7z M52.1,117.4h0.7c0,2.7,1.7,3.4,3.2,3.4c1.4,0,2.8-0.6,2.8-2.3c0-3.8-6.9-3.8-6.9-8.2 c0-2.2,1.6-3.8,4.9-3.8c1.6,0,3.1,0.4,3.6,0.4l-0.7,3.4H59c0.2-1.6-0.6-3-2.5-3c-1.5,0-2.7,0.7-2.7,2.3c0,3.9,6.9,3.5,6.9,8.2 c0,2.6-2.3,3.9-4.9,3.9c-1.9,0-4.2-0.7-4.2-2.3C51.6,119,51.7,118.7,52.1,117.4z M70.8,106.4c1.6,0,3.6,0.4,4.8,0.5l-0.7,3.3h-0.7 c0-2.3-1.9-3-3.7-3c-3.4,0-5.6,2.7-5.6,6.3c0,4,2.8,6.6,6.4,6.6c2.8,0,4.4-1.6,4.4-1.6L76,119c0,0-1.7,2.6-5.5,2.6 c-3.9,0-7.7-2.7-7.7-7.4C62.8,109.7,66.1,106.4,70.8,106.4L70.8,106.4z M76.4,120.7c0.9-0.1,1.3-0.5,1.5-1l5.2-13l0.9-0.2l4.9,12.5 c0.6,1.5,1,1.6,1.7,1.7l-0.1,0.6h-0.9c-0.8,0-3.3,0.1-3.3,0.1v-0.7c0.6,0,1.2-0.2,0.9-0.9l-1.3-3.5h-5.3l-0.3,0.2l-1.5,4l1.9,0.3 l-0.1,0.6h-4.1v-0.7H76.4z M83.1,109l-2.4,6.4h4.8l-1.9-5C83.4,109.9,83.2,109.3,83.1,109z M91.6,120.7c1-0.1,1.6-0.6,1.6-1.4v-10.5 c0-1.1-0.1-1.3-1.8-1.6v-0.6h5.5c2.5,0,5.4,0.8,5.4,4c0,3.5-3.3,4.7-5.7,4.5v-0.6c2.6-0.1,3.5-1.7,3.5-3.4c0-2.6-2.1-3.7-4.4-3.7 h-0.3l-0.2,0.2v11.6c0,0.6-0.1,1.1-0.1,1.1l2.1,0.2l-0.1,0.6l-5.4,0.1v-0.5L91.6,120.7z M104,120.7c1-0.1,1.6-0.6,1.6-1.4v-10.5 c0-1.1-0.1-1.3-1.8-1.6v-0.6h9.1c0.9,0,1.6-0.1,1.6-0.1l-0.7,3.7H113c0.1-2.3-0.6-2.7-2.4-2.7h-2.9l-0.2,0.2v5.7h4.1l0.2-1.3 l0.8-0.1v3.9h-1v-1.6h-3.8l-0.2,0.2v4.7c0,0.7-0.1,1.2-0.1,1.2h3.5c1.9,0,2.2-0.4,3.3-2.7h0.7l-0.8,3.6h-6.9c-1.1,0-3.2,0.1-3.2,0.1 v-0.7L104,120.7z"></path><g transform="matrix(.994 0 0 .994 .389 -1.445)">	<g opacity="0.783">		<path d="M55.1,8.29l-37.2,38.1c-14.1,14.1,9.1,12.9,17.5,18.2c3.9,2.5-12.5,5.8-9.1,9.1l22.8,9.7c3.2,3.3-6.6,6.9-3.3,10.2   c3.2,3.3,10.7,0.2,12.1,7.8c1,5.6,13.9,2.8,19.7-2l-3-6.4c8.1-8.2,15.3-3.7,18.3-11.3c1.6-4.1-12.3-6.9-8.6-9.6   c8.8-6.2,41.3-9.4,26.3-24.4L72.1,8.29C67.3,3.79,59.5,3.79,55.1,8.29L55.1,8.29z M97.7,81.69c0,1.9,14.7,3,13.9-0.5   C110.5,75.49,99.4,75.89,97.7,81.69z M35,91.69c3.3,2.9,8.4-0.6,10-4.7C41.8,82.79,29.8,87.29,35,91.69z M95.9,85.69   c-4.2,3.8,0.7,7.8,4.8,5.1C101.8,90.09,100.6,86.59,95.9,85.69z"></path>		<path opacity="0.576" d="M55.1,9.19l-37.2,38.1c-14.1,14.1,9.1,12.9,17.5,18.2   c3.9,2.5-12.5,5.8-9.1,9.1l22.8,9.7c3.2,3.3-6.6,6.9-3.3,10.2c3.2,3.3,10.7,0.2,12.1,7.8c1,5.6,13.9,2.8,19.7-2l-3-6.4   c8.1-8.2,15.3-3.7,18.3-11.3c1.6-4.1-12.3-6.9-8.6-9.6c8.8-6.2,41.3-9.4,26.3-24.4L72.1,9.19C67.3,4.69,59.5,4.69,55.1,9.19   L55.1,9.19z M97.7,82.59c0,1.9,14.7,3,13.9-0.5C110.5,76.29,99.4,76.79,97.7,82.59z M35,92.59c3.3,2.9,8.4-0.6,10-4.7   C41.8,83.59,29.8,88.19,35,92.59z M95.9,86.49c-4.2,3.8,0.7,7.8,4.8,5.1C101.8,90.99,100.6,87.39,95.9,86.49z"></path>	</g>	<path d="M55.1,7.4L17.9,45.5C3.8,59.6,27,58.4,35.4,63.7c3.9,2.5-12.5,5.8-9.1,9.1l22.8,9.7c3.2,3.3-6.6,6.9-3.3,10.2  c3.2,3.3,10.7,0.2,12.1,7.8c1,5.6,13.9,2.8,19.7-2l-3-6.4c8.1-8.2,15.3-3.7,18.3-11.3c1.6-4.1-12.3-6.9-8.6-9.6  c8.8-6.2,41.3-9.4,26.3-24.4L72.1,7.4C67.3,2.9,59.5,2.9,55.1,7.4z M97.7,80.8c0,1.9,14.7,3,13.9-0.5C110.5,74.6,99.4,75,97.7,80.8  z M35,90.8c3.3,2.9,8.4-0.6,10-4.7C41.8,81.9,29.8,86.4,35,90.8z M95.9,84.8c-4.2,3.8,0.7,7.8,4.8,5.1  C101.8,89.2,100.6,85.7,95.9,84.8z"></path>	<path fill="none" d="M55.1,7.4L17.9,45.5C3.8,59.6,27,58.4,35.4,63.7c3.9,2.5-12.5,5.8-9.1,9.1l22.8,9.7c3.2,3.3-6.6,6.9-3.3,10.2  c3.2,3.3,10.7,0.2,12.1,7.8c1,5.6,13.9,2.8,19.7-2l-3-6.4c8.1-8.2,15.3-3.7,18.3-11.3c1.6-4.1-12.3-6.9-8.6-9.6  c8.8-6.2,41.3-9.4,26.3-24.4L72.1,7.4C67.3,2.9,59.5,2.9,55.1,7.4z M97.7,80.8c0,1.9,14.7,3,13.9-0.5C110.5,74.6,99.4,75,97.7,80.8  z M35,90.8c3.3,2.9,8.4-0.6,10-4.7C41.8,81.9,29.8,86.4,35,90.8z M95.9,84.8c-4.2,3.8,0.7,7.8,4.8,5.1  C101.8,89.2,100.6,85.7,95.9,84.8z"></path>	<g>		<defs>			<path id="INKSCAPE" d="M55.31,8.43L18.74,45.79C4.97,59.57,27.66,58.48,35.88,63.73c3.77,2.48-12.19,5.65-8.92,8.92    s19.23,6.24,22.5,9.41l-3.27,10.01c3.07,3.27,10.5,0.2,11.89,7.63c0.99,5.45,13.68,2.77,19.32-1.98    c3.57-2.97-6.14-2.97-2.87-6.24c7.93-8.03,15.06-3.67,17.94-11.1c1.59-3.96-12.09-6.84-8.42-9.41    c8.72-6.14,40.53-9.22,25.87-23.88L71.96,8.43C67.3,3.97,59.57,3.97,55.31,8.43z M46.49,65.71c0.79,0,27.25,3.57,17.05,6.24    C59.67,73.05,41.83,65.71,46.49,65.71z M97.13,80.38c0,1.88,14.47,2.87,13.68-0.4C109.62,74.33,98.71,74.73,97.13,80.38z     M35.59,90.29c3.27,2.87,8.23-0.59,9.81-4.56C42.23,81.47,30.43,85.93,35.59,90.29z M95.34,84.34c-4.06,3.77,0.69,7.63,4.66,5.05    C101.09,88.6,100,85.24,95.34,84.34z"></path>		</defs>		<clipPath id="INKSCAPE_A">			<use xlink:href="#INKSCAPE"></use>		</clipPath>		<g transform="matrix(.991 0 0 .991 .605 .604)" clip-path="url(#INKSCAPE_A)">							<linearGradient id="INKSCAPE_1" gradientUnits="userSpaceOnUse" x1="99.2369" y1="923.8264" x2="79.2799" y2="941.8704" gradientTransform="matrix(0.9703 0 0 0.9703 0.0733 -863.9291)">				<stop offset="0" style="stop-color:#C0CDF9"></stop>				<stop offset="1" style="stop-color:#07092D;stop-opacity:0.288"></stop>			</linearGradient>			<path fill="url(#INKSCAPE_1)" d="M55.2,7.9L18.3,45.6    c-13.9,13.9,9,12.8,17.3,18.1c3.8,2.5-12.3,5.7-9,9S46,79,49.3,82.2L46,92.3c3.1,3.3,10.6,0.2,12,7.7c1,5.5,13.8,2.8,19.5-2    c3.6-3-6.2-3-2.9-6.3c8-8.1,15.2-3.7,18.1-11.2c1.6-4-12.2-6.9-8.5-9.5c8.8-6.2,40.9-9.3,26.1-24.1L72,7.9    C67.3,3.4,59.5,3.4,55.2,7.9z M46.3,65.7c0.8,0,27.5,3.6,17.2,6.3C59.6,73.1,41.6,65.7,46.3,65.7z M97.4,80.5    c0,1.9,14.6,2.9,13.8-0.4C110,74.4,99,74.8,97.4,80.5z M35.3,90.5c3.3,2.9,8.3-0.6,9.9-4.6C42,81.6,30.1,86.1,35.3,90.5z     M95.6,84.5c-4.1,3.8,0.7,7.7,4.7,5.1C101.4,88.8,100.3,85.4,95.6,84.5z"></path>		</g>	</g>			<linearGradient id="INKSCAPE_2" gradientUnits="userSpaceOnUse" x1="38.9474" y1="896.8613" x2="61.5034" y2="919.4163" gradientTransform="matrix(0.997 0 0 0.997 -0.7303 -868.6248)">		<stop offset="0" style="stop-color:#FFFFFF"></stop>		<stop offset="1" style="stop-color:#FFFFFF;stop-opacity:0"></stop>	</linearGradient>	<path opacity="0.505" fill="url(#INKSCAPE_2)" d="  M21.2,47.6c-10.1,10,7.6,7.2,21.3,12.6l28.2-49.6c-4.3-4.4-9.7-4-13.7,0C57,10.6,21.2,47.6,21.2,47.6z"></path>			<linearGradient id="INKSCAPE_3" gradientUnits="userSpaceOnUse" x1="53.5979" y1="897.1205" x2="80.6649" y2="924.1874" gradientTransform="matrix(0.988 0 0 0.988 0.2912 -865.0348)">		<stop offset="0" style="stop-color:#FFFFFF"></stop>		<stop offset="1" style="stop-color:#FFFFFF;stop-opacity:0"></stop>	</linearGradient>	<path fill="url(#INKSCAPE_3)" d="M69.9,10.1l14.7,15c1.4,1.4,1.4,4.2,0.5,5l-7.3-6  l-1.4,8.8l-6-3.2l-9.8,6.2l-3.2-13.1L52,34.1L38.9,34c-2.5,0-2.2-2.6,0.5-5.2c5.1-5.7,15.2-15.3,18.3-18.7  C60.9,6.8,66.6,6.9,69.9,10.1z"></path>			<radialGradient id="INKSCAPE_4" cx="106.0321" cy="1512.9388" r="27.608" gradientTransform="matrix(0.822 0 0 0.5497 -40.2707 -732.6351)" gradientUnits="userSpaceOnUse">		<stop offset="0" style="stop-color:#FFFFFF"></stop>		<stop offset="1" style="stop-color:#FFFFFF;stop-opacity:0"></stop>	</radialGradient>	<path opacity="0.217" fill="url(#INKSCAPE_4)" d="  M49.7,80.9c0,0,1.6,2.4,1.4,3.6c-0.3,2.3-5.2,3.4-4.1,5.4c1.1,2,4.9,0.9,8.1,2.9c3.2,2.1,2.3,6.3,4.7,7.3  c4.5,2.1,16.4-3.6,15.8-3.4c-0.6,0.1-11.7,2.4-14.2,0.4c-2.9-2.3-3.7-3.9-5.8-5.3c-2-1.3-4.8-1.8-5.4-2.9c-0.6-1.1,1.3-2.4,1.4-4.4  C51.7,83.3,49.7,80.9,49.7,80.9z"></path>	<g opacity="0.276">					<radialGradient id="INKSCAPE_5" cx="138.0455" cy="1319.3148" r="27.608" gradientTransform="matrix(1.0487 0 0 0.7018 -85.7311 -826.1723)" gradientUnits="userSpaceOnUse">			<stop offset="0" style="stop-color:#FFFFFF"></stop>			<stop offset="1" style="stop-color:#FFFFFF;stop-opacity:0"></stop>		</radialGradient>		<path fill="url(#INKSCAPE_5)" d="M49.7,80.9c0,0,1.6,2.4,1.4,3.6   c-0.3,2.3-5.2,3.4-4.1,5.4c1.1,2,4.9,0.9,8.1,2.9c3.2,2.1,2.3,6.3,4.7,7.3c4.5,2.1,16.4-3.6,15.8-3.4c-19.8,0.1-16.1-5-23.7-8.4   c-1.1-0.5-0.5-1.8-0.3-3.8C51.7,83.3,49.7,80.9,49.7,80.9z"></path>	</g>			<radialGradient id="INKSCAPE_6" cx="146.9364" cy="2777.1831" r="30.9311" gradientTransform="matrix(0.5228 0 0 0.2217 19.3252 -551.3406)" gradientUnits="userSpaceOnUse">		<stop offset="0" style="stop-color:#FFFFFF"></stop>		<stop offset="1" style="stop-color:#FFFFFF;stop-opacity:0"></stop>	</radialGradient>	<path opacity="0.453" fill="url(#INKSCAPE_6)" d="  M83.2,70.5c17.7-6.5,23.4-7.4,29.3-13.3C105.8,63,91.4,66,79.8,71.1C79.8,71.1,83.2,70.5,83.2,70.5z"></path>	<g opacity="0.512">					<radialGradient id="INKSCAPE_7" cx="153.6173" cy="2789.9961" r="30.901" gradientTransform="matrix(0.5228 0 0 0.2217 19.3252 -552.2666)" gradientUnits="userSpaceOnUse">			<stop offset="0" style="stop-color:#FFFFFF"></stop>			<stop offset="1" style="stop-color:#FFFFFF;stop-opacity:0"></stop>		</radialGradient>		<path fill="url(#INKSCAPE_7)" d="M83.2,69.7c29.2-10.3,24.3-10.3,29.3-13.3   c-9.3,3.6-26.6,3.9-32.7,13.9C79.8,70.3,83.2,69.7,83.2,69.7z"></path>	</g>			<linearGradient id="INKSCAPE_8" gradientUnits="userSpaceOnUse" x1="165.0581" y1="1507.3806" x2="165.1701" y2="1513.0756" gradientTransform="matrix(0.5228 0 0 0.5228 18.6622 -712.165)">		<stop offset="0" style="stop-color:#FFFFFF"></stop>		<stop offset="1" style="stop-color:#FFFFFF;stop-opacity:0"></stop>	</linearGradient>	<path opacity="0.286" fill="url(#INKSCAPE_8)" d="  M108.8,77.9c0,0.6-1.7,1.2-3.8,1.2c-2.1,0-3.8-0.5-3.8-1.2c0-0.6,1.7-1.2,3.8-1.2C107.1,76.8,108.8,77.3,108.8,77.9z"></path>	<g opacity="0.621">					<linearGradient id="INKSCAPE_9" gradientUnits="userSpaceOnUse" x1="199.267" y1="998.8521" x2="199.267" y2="1002.8671" gradientTransform="matrix(0.7047 0 0 1.1272 -35.4326 -1050.1346)">			<stop offset="0" style="stop-color:#FFFFFF"></stop>			<stop offset="1" style="stop-color:#FFFFFF;stop-opacity:0"></stop>		</linearGradient>		<path fill="url(#INKSCAPE_9)" d="M110.1,79.3c0,1.4-2.3,2.5-5.1,2.5   s-5.1-1.1-5.1-2.5s2.3-2.5,5.1-2.5S110.1,77.9,110.1,79.3z"></path>	</g>			<radialGradient id="INKSCAPE_10" cx="163.3849" cy="6970.0737" r="12.7311" gradientTransform="matrix(0.5228 0 0 0.0775 19.3252 -458.803)" gradientUnits="userSpaceOnUse">		<stop offset="0" style="stop-color:#FFFFFF"></stop>		<stop offset="1" style="stop-color:#FFFFFF;stop-opacity:0"></stop>	</radialGradient>	<path fill="url(#INKSCAPE_10)" d="M98,80.7c1.8,1.7,11.8,2.5,13.5-0.5  C108.3,82.5,101.1,81.7,98,80.7z"></path>			<linearGradient id="INKSCAPE_11" gradientUnits="userSpaceOnUse" x1="-965.6293" y1="1343.4048" x2="-965.5173" y2="1349.0997" gradientTransform="matrix(0.2018 -0.1024 0.2366 0.4662 -26.9632 -639.881)">		<stop offset="0" style="stop-color:#FFFFFF"></stop>		<stop offset="1" style="stop-color:#FFFFFF;stop-opacity:0"></stop>	</linearGradient>	<path opacity="0.286" fill="url(#INKSCAPE_11)" d="  M98,86.2c0.4,0.7,0.1,1.6-0.5,1.9c-0.7,0.3-1.5,0-1.9-0.7s-0.1-1.6,0.5-1.9S97.7,85.5,98,86.2z"></path>	<g opacity="0.621">					<linearGradient id="INKSCAPE_12" gradientUnits="userSpaceOnUse" x1="-640.1805" y1="922.8403" x2="-640.1805" y2="926.8553" gradientTransform="matrix(0.2714 -0.1382 0.5099 1.0049 -201.316 -931.3195)">			<stop offset="0" style="stop-color:#FFFFFF"></stop>			<stop offset="1" style="stop-color:#FFFFFF;stop-opacity:0"></stop>		</linearGradient>		<path fill="url(#INKSCAPE_12)" d="M98.8,86.6c0.6,1.1,0.2,2.4-0.8,2.9   s-2.2,0-2.7-1.1C94.7,87.2,95,86,96,85.5S98.2,85.5,98.8,86.6z"></path>	</g>			<radialGradient id="INKSCAPE_13" cx="-966.9047" cy="5901.1465" r="12.716" gradientTransform="matrix(0.2018 -0.1024 0.0348 0.0686 88.0648 -413.8281)" gradientUnits="userSpaceOnUse">		<stop offset="0" style="stop-color:#FFFFFF"></stop>		<stop offset="1" style="stop-color:#FFFFFF;stop-opacity:0"></stop>	</radialGradient>	<path fill="url(#INKSCAPE_13)" d="M95.5,89.6c1.4,1.1,6.9,1.3,4.8-2  C100.9,90.2,97.2,89.9,95.5,89.6z"></path>			<radialGradient id="INKSCAPE_14" cx="37.069" cy="2884.188" r="20.526" gradientTransform="matrix(0.5228 0 0 0.2127 19.3252 -538.2126)" gradientUnits="userSpaceOnUse">		<stop offset="0" style="stop-color:#FFFFFF;stop-opacity:0.33"></stop>		<stop offset="1" style="stop-color:#FFFFFF;stop-opacity:0"></stop>	</radialGradient>	<path fill="url(#INKSCAPE_14)" d="M28.3,72.5c0-0.3,18.6,5.7,21.7,8.8  c-2.6-2.6-15.8-8.4-17.9-8.5C30.2,72.8,28.5,72.7,28.3,72.5z"></path>	<g transform="matrix(.879 -.193 .234 .696 -20.21 36.726)">					<linearGradient id="INKSCAPE_15" gradientUnits="userSpaceOnUse" x1="-411.6988" y1="3070.9971" x2="-411.5858" y2="3076.6919" gradientTransform="matrix(0.4281 0.0189 0.0226 0.2769 152.5373 -761.2283)">			<stop offset="0" style="stop-color:#FFFFFF"></stop>			<stop offset="1" style="stop-color:#FFFFFF;stop-opacity:0"></stop>		</linearGradient>		<path opacity="0.286" fill="url(#INKSCAPE_15)" d="   M48.9,83.3c0,0.6-1.7,1.2-3.8,1.2s-3.8-0.5-3.8-1.2c0-0.6,1.7-1.2,3.8-1.2S48.9,82.7,48.9,83.3z"></path>		<g opacity="0.621">							<linearGradient id="INKSCAPE_16" gradientUnits="userSpaceOnUse" x1="-198.1239" y1="1810.4634" x2="-198.1239" y2="1814.4784" gradientTransform="matrix(0.5762 0.04 0.0301 0.5968 105.517 -991.136)">				<stop offset="0" style="stop-color:#FFFFFF"></stop>				<stop offset="1" style="stop-color:#FFFFFF;stop-opacity:0"></stop>			</linearGradient>			<path fill="url(#INKSCAPE_16)" d="M50.2,84.7c0,1.4-2.3,2.5-5.1,2.5    S40,86.1,40,84.7s2.3-2.5,5.1-2.5S50.2,83.3,50.2,84.7z"></path>		</g>	</g>	<g opacity="0.616">					<radialGradient id="INKSCAPE_17" cx="-143.3723" cy="2507.2734" r="9.445" gradientTransform="matrix(0.6203 -0.172 0.0646 0.2316 -34.0665 -514.4993)" gradientUnits="userSpaceOnUse">			<stop offset="0" style="stop-color:#FFFFFF"></stop>			<stop offset="1" style="stop-color:#FFFFFF;stop-opacity:0"></stop>		</radialGradient>		<path fill="url(#INKSCAPE_17)" d="M34.2,88.3c0,0,1,2.7,3.8,2.8   c2.8,0.1,6-3.3,6.2-4.6c-0.5,1.1-3.1,4.3-6.6,4.3C35.7,90.8,34.2,88.3,34.2,88.3z"></path>	</g>			<radialGradient id="INKSCAPE_18" cx="96.6536" cy="682.1219" r="49.468" gradientTransform="matrix(1.7017 0 0 1.6749 -96.4515 -1126.5991)" gradientUnits="userSpaceOnUse">		<stop offset="0" style="stop-color:#FFFFFF"></stop>		<stop offset="1" style="stop-color:#FFFFFF;stop-opacity:0"></stop>	</radialGradient>			<path fill="none" stroke="url(#INKSCAPE_18)" stroke-width="0.4851" stroke-miterlimit="3.976" d="  M63.5,5.4c-2.8,0-5.5,1-7.5,3l-37.2,38c-3.4,3.4-4.2,5.6-4,6.9c0.1,0.6,0.4,1.2,1.1,1.7c0.7,0.6,1.7,1.1,2.8,1.6  c2.4,1,5.6,1.8,8.8,2.7s6.3,1.8,8.6,3.3c0.4,0.2,0.7,0.5,0.9,0.9s0.3,1,0.2,1.4c-0.2,0.9-0.8,1.4-1.3,1.8c-1.1,0.9-2.7,1.6-4.3,2.4  s-3.2,1.6-4,2.2c-0.4,0.3-0.5,0.6-0.5,0.6s-0.1-0.2,0.1-0.1c0.5,0.5,2.1,1.4,4,2.2s4.4,1.6,6.9,2.4c2.4,0.8,4.9,1.6,7,2.4  s3.8,1.6,4.9,2.7c0.6,0.6,1,1.3,1,2c0.1,0.7-0.1,1.4-0.4,2c-0.6,1.2-1.5,2-2.3,2.9s-1.6,1.7-1.8,2.2c-0.1,0.3-0.2,0.5-0.1,0.6  s0,0.2,0.3,0.5c1.1,1.1,3.4,1.3,6.1,1.9c1.3,0.3,2.7,0.8,3.9,1.8s2.1,2.6,2.5,4.7c0.2,0.9,0.6,1.3,1.8,1.7c1.1,0.4,2.9,0.4,4.8,0.1  c3.8-0.6,8.4-2.4,11-4.6c0.2-0.1,0.1-0.1,0.2-0.2c-0.2-0.1-0.6-0.4-1.3-0.7c-0.8-0.4-1.8-0.8-2.5-1.7c-0.4-0.5-0.6-1.2-0.5-1.9  c0.1-0.7,0.5-1.3,1-1.8c4.3-4.3,8.5-5.4,11.7-6.2c1.6-0.4,2.9-0.8,3.9-1.4s1.8-1.5,2.5-3.2c0.1-0.2,0.1-0.2,0-0.5s-0.4-0.6-0.8-0.9  c-0.8-0.7-2.3-1.5-3.7-2.3c-1.4-0.8-2.8-1.5-3.7-2.4c-0.5-0.5-1-1-1.1-1.9s0.5-1.7,1.2-2.1c2.5-1.7,6.2-3.1,10.3-4.5  c4.1-1.4,8.4-2.9,12-4.5c3.6-1.7,6.2-3.6,7-5.5c0.4-1,0.5-1.9,0.1-3.2s-1.4-2.8-3.2-4.6L71.2,8.4C69.1,6.4,66.2,5.4,63.5,5.4z   M104.9,77.6c-2.4,0.1-4.6,1.2-5.5,2.9c0.3,0.1,0.5,0.2,0.9,0.3c1.2,0.3,3,0.5,4.7,0.5s3.4-0.1,4.5-0.4c0.5-0.1,0.7-0.3,0.8-0.3  c-0.2-1-0.8-1.7-1.7-2.2C107.6,77.8,106.3,77.5,104.9,77.6z M41.3,85.7c-1.9-0.1-4.3,0.6-5.4,1.6c-0.6,0.5-0.8,0.9-0.8,1.2  c0,0.3,0.1,0.7,0.8,1.3c1.2,1.1,2.6,0.9,4.2,0.1c1.3-0.7,2.5-2.1,3.3-3.5C42.8,86.1,42.2,85.8,41.3,85.7z M96.3,86.3  c-0.4,0.5-0.6,1-0.6,1.3c0,0.5,0.1,0.8,0.5,1.2c0.7,0.6,2.1,0.9,3.6,0.1c0-0.2-0.1-0.4-0.3-0.8C99,87.5,97.9,86.8,96.3,86.3z"></path>	<g opacity="0.325">					<linearGradient id="INKSCAPE_19" gradientUnits="userSpaceOnUse" x1="33.7381" y1="1591.2952" x2="86.0671" y2="1605.1322" gradientTransform="matrix(0.4821 0 0 0.4821 27.9712 -690.4073)">			<stop offset="0" style="stop-color:#FFFFFF"></stop>			<stop offset="1" style="stop-color:#FFFFFF;stop-opacity:0"></stop>		</linearGradient>		<path fill="url(#INKSCAPE_19)" d="M43.1,65c-2.2,0.7-9.5,3.4-8.5,5.5   c1,2,17.9,2.8,20.5,8.8c1.1,2.6-2.6,4.6-1.7,7.3c0.7,2.1,6.3,7.3,9.9,9.7c2.8,1.9,6.5-1.6,5-4.4c-2.4-4.6,8.1-10.2,12.9-12.8   c2.8-1.5-5.7-8.8-5.7-8.8L43.1,65z"></path>	</g>			<linearGradient id="INKSCAPE_20" gradientUnits="userSpaceOnUse" x1="48.4278" y1="1005.8435" x2="45.1858" y2="1013.2715" gradientTransform="matrix(0.8747 0 0 0.8747 13.0109 -814.9866)">		<stop offset="0" style="stop-color:#EEEEEC"></stop>		<stop offset="1" style="stop-color:#EEEEEC;stop-opacity:0"></stop>	</linearGradient>	<path fill="url(#INKSCAPE_20)" d="M43.9,67c2,1.5,6,0.6,8.4,1.7  c5.7,2.6,12.8,5.5,11.5,0.4l-1.5,1.2V68l-3.4,0.8c0,0-2.6-2.1-3.8-2.8c-0.3-0.1-1.5,1.2-1.5,1.2l-0.2-1.4c-1.7-0.2-3.3-0.3-4.8-0.2  C45,65.5,42.6,66.1,43.9,67z"></path>	<g opacity="0.478">					<radialGradient id="INKSCAPE_21" cx="145.9526" cy="1175.5043" r="20.27" gradientTransform="matrix(0.6521 0 0 0.829 -14.3122 -890.6602)" gradientUnits="userSpaceOnUse">			<stop offset="0" style="stop-color:#FFFFFF"></stop>			<stop offset="1" style="stop-color:#FFFFFF;stop-opacity:0"></stop>		</radialGradient>		<path fill="url(#INKSCAPE_21)" d="M81.5,71.7c-0.8,2.9,9.5,6.7,8.8,8.7   c-1.7,4.3-11,1.4-18.1,10.5c-1,1.3,1.4,5.9,1.1,5.4s-2.8-4.4-2.2-6.3c2-5.9,21.6-8.1,18-11C87,77.4,79.6,72.9,81.5,71.7z"></path>	</g>	<path opacity="0.586" fill="#FFFFFF" d="M104.7,77.6c0,0.3-0.5,0.5-1.1,0.5s-1.1-0.2-1.1-0.5  s0.5-0.5,1.1-0.5S104.7,77.3,104.7,77.6z M97.2,86.2c0,0.3-0.3,0.5-0.7,0.5c-0.4,0-0.7-0.2-0.7-0.5s0.3-0.5,0.7-0.5  C96.8,85.7,97.2,86,97.2,86.2z M40.1,85.8c0,0.3-0.6,0.5-1.3,0.5s-1.3-0.2-1.3-0.5s0.6-0.5,1.3-0.5S40.1,85.5,40.1,85.8z"></path>			<linearGradient id="INKSCAPE_22" gradientUnits="userSpaceOnUse" x1="12.0841" y1="1564.6361" x2="20.2411" y2="1571.1171" gradientTransform="matrix(0.4871 0 0 0.4871 27.6142 -694.286)">		<stop offset="0" style="stop-color:#FFFFFF"></stop>		<stop offset="1" style="stop-color:#FFFFFF;stop-opacity:0"></stop>	</linearGradient>	<path opacity="0.251" fill="url(#INKSCAPE_22)" d="  M39.3,65.2c-6.5,4-16.5,5.4-5.5,8.1C32.5,70.4,36.7,70.7,39.3,65.2z"></path>	<g opacity="0.363">					<linearGradient id="INKSCAPE_23" gradientUnits="userSpaceOnUse" x1="124.9809" y1="1602.4484" x2="100.5199" y2="1536.5853" gradientTransform="matrix(0.4821 0 0 0.4821 27.9712 -690.4073)">			<stop offset="0" style="stop-color:#729FCF"></stop>			<stop offset="1" style="stop-color:#729FCF;stop-opacity:0"></stop>		</linearGradient>		<path fill="url(#INKSCAPE_23)" d="M62.3,101.6c0,0,10-0.9,12.3-3.8   c1.3-1.7-5.4-3.6-3.9-5.3c5.4-6.2,10-5.9,16.3-8.5s4-3.9,1.9-5c-3.5-2-11.3-4-8.7-8.7c2.6-4.7,25.3-11.1,25.3-11.1   c6.9-2.3,6-6.6,2.6-10.1L87.8,28.9c0,0,1,19.1-3.1,27.3c-5.1,10.1-32,21.4-20.7,22.7c4,0.4,5.9,1.8,7.5,4.8   C74.8,90,62.3,101.6,62.3,101.6z"></path>	</g></g></svg>