<svg xmlns="http://www.w3.org/2000/svg" xmlns:xlink="http://www.w3.org/1999/xlink" id="Layer_1" x="0px" y="0px" viewBox="0 0 132 132" xml:space="preserve"><radialGradient id="instagram_1" cx="-251.6848" cy="-216.4761" r="65" gradientTransform="matrix(0 -1.982 -1.8439 0 -363.6218 -357.8334)" gradientUnits="userSpaceOnUse">	<stop offset="0" style="stop-color:#FFDD55"></stop>	<stop offset="0.1" style="stop-color:#FFDD55"></stop>	<stop offset="0.5" style="stop-color:#FF543E"></stop>	<stop offset="1" style="stop-color:#C837AB"></stop></radialGradient><path fill="url(#instagram_1)" d="M66.03,1C38.89,1,30.95,1.03,29.41,1.16C23.84,1.62,20.37,2.5,16.6,4.38 c-2.91,1.45-5.2,3.12-7.47,5.47C5,14.13,2.5,19.39,1.6,25.66C1.16,28.7,1.03,29.32,1,44.84C1,50.02,1,56.83,1,65.97 c0,27.12,0.03,35.05,0.16,36.59c0.45,5.42,1.3,8.83,3.1,12.56c3.44,7.14,10.01,12.5,17.75,14.5c2.68,0.69,5.64,1.07,9.44,1.25 c1.61,0.07,18.02,0.12,34.44,0.12s32.84-0.02,34.41-0.1c4.4-0.21,6.96-0.55,9.78-1.28c7.79-2.01,14.24-7.29,17.75-14.53 c1.76-3.64,2.66-7.18,3.07-12.32c0.09-1.12,0.12-18.98,0.12-36.81c0-17.84-0.04-35.66-0.13-36.78c-0.41-5.22-1.3-8.73-3.13-12.44 c-1.5-3.04-3.15-5.31-5.57-7.62C117.9,5,112.64,2.5,106.38,1.6c-3.04-0.44-3.64-0.57-19.18-0.6H66.03z"></path><radialGradient id="instagram_2" cx="360.7799" cy="56.3618" r="65" gradientTransform="matrix(0.1739 0.8687 3.5818 -0.7172 -285.4098 -262.631)" gradientUnits="userSpaceOnUse">	<stop offset="0" style="stop-color:#3771C8"></stop>	<stop offset="0.128" style="stop-color:#3771C8"></stop>	<stop offset="1" style="stop-color:#6600FF;stop-opacity:0"></stop></radialGradient><path fill="url(#instagram_2)" d="M66.03,1C38.89,1,30.95,1.03,29.41,1.16 C23.84,1.62,20.37,2.5,16.6,4.38c-2.91,1.45-5.2,3.12-7.47,5.47C5,14.13,2.5,19.39,1.6,25.66C1.16,28.7,1.03,29.32,1,44.84 C1,50.02,1,56.83,1,65.97c0,27.12,0.03,35.05,0.16,36.59c0.45,5.42,1.3,8.83,3.1,12.56c3.44,7.14,10.01,12.5,17.75,14.5 c2.68,0.69,5.64,1.07,9.44,1.25c1.61,0.07,18.02,0.12,34.44,0.12s32.84-0.02,34.41-0.1c4.4-0.21,6.96-0.55,9.78-1.28 c7.79-2.01,14.24-7.29,17.75-14.53c1.76-3.64,2.66-7.18,3.07-12.32c0.09-1.12,0.12-18.98,0.12-36.81c0-17.84-0.04-35.66-0.13-36.78 c-0.41-5.22-1.3-8.73-3.13-12.44c-1.5-3.04-3.15-5.31-5.57-7.62C117.9,5,112.64,2.5,106.38,1.6c-3.04-0.44-3.64-0.57-19.18-0.6 H66.03z"></path><path fill="#FFFFFF" d="M66,18c-13.04,0-14.67,0.06-19.79,0.29c-5.11,0.23-8.6,1.04-11.65,2.23c-3.16,1.23-5.83,2.87-8.5,5.53 c-2.67,2.67-4.31,5.35-5.54,8.5c-1.19,3.05-2,6.54-2.23,11.65C18.06,51.33,18,52.96,18,66s0.06,14.67,0.29,19.79 c0.24,5.11,1.04,8.6,2.23,11.65c1.23,3.16,2.87,5.83,5.54,8.5c2.67,2.67,5.34,4.31,8.5,5.54c3.05,1.19,6.54,2,11.65,2.23 C51.33,113.94,52.96,114,66,114c13.04,0,14.67-0.06,19.79-0.29c5.11-0.23,8.6-1.04,11.66-2.23c3.16-1.23,5.83-2.87,8.5-5.54 c2.67-2.67,4.31-5.35,5.54-8.5c1.18-3.05,1.99-6.54,2.23-11.65C113.94,80.67,114,79.04,114,66s-0.06-14.67-0.29-19.79 c-0.24-5.11-1.05-8.6-2.23-11.65c-1.23-3.16-2.87-5.83-5.54-8.5c-2.67-2.67-5.34-4.31-8.5-5.53c-3.06-1.19-6.55-2-11.66-2.23 C80.66,18.06,79.03,18,65.99,18L66,18z M61.7,26.65c1.28,0,2.7,0,4.31,0c12.82,0,14.33,0.05,19.4,0.28c4.68,0.21,7.22,1,8.91,1.65 c2.24,0.87,3.84,1.91,5.52,3.59c1.68,1.68,2.72,3.28,3.59,5.52c0.66,1.69,1.44,4.23,1.65,8.91c0.23,5.06,0.28,6.58,0.28,19.39 s-0.05,14.33-0.28,19.39c-0.21,4.68-1,7.22-1.65,8.91c-0.87,2.24-1.91,3.83-3.59,5.51c-1.68,1.68-3.28,2.72-5.52,3.59 c-1.69,0.66-4.23,1.44-8.91,1.65c-5.06,0.23-6.58,0.28-19.4,0.28c-12.82,0-14.34-0.05-19.4-0.28c-4.68-0.22-7.22-1-8.91-1.65 c-2.24-0.87-3.84-1.91-5.52-3.59c-1.68-1.68-2.72-3.28-3.59-5.52c-0.66-1.69-1.44-4.23-1.65-8.91c-0.23-5.06-0.28-6.58-0.28-19.4 s0.05-14.33,0.28-19.39c0.21-4.68,1-7.22,1.65-8.91c0.87-2.24,1.91-3.84,3.59-5.52c1.68-1.68,3.28-2.72,5.52-3.59 c1.69-0.66,4.23-1.44,8.91-1.66c4.43-0.2,6.14-0.26,15.09-0.27L61.7,26.65z M91.63,34.62c-3.18,0-5.76,2.58-5.76,5.76 c0,3.18,2.58,5.76,5.76,5.76s5.76-2.58,5.76-5.76S94.81,34.62,91.63,34.62L91.63,34.62z M66,41.35c-13.61,0-24.65,11.04-24.65,24.65 S52.39,90.65,66,90.65c13.61,0,24.65-11.03,24.65-24.65S79.62,41.35,66,41.35L66,41.35z M66,50c8.84,0,16,7.16,16,16 c0,8.84-7.16,16-16,16c-8.84,0-16-7.16-16-16C50,57.16,57.17,50,66,50z"></path></svg>