<svg xmlns="http://www.w3.org/2000/svg" xmlns:xlink="http://www.w3.org/1999/xlink" xmlns:serif="http://www.serif.com/" width="100%" height="100%" viewBox="0 0 183 52" xml:space="preserve" style="fill-rule:evenodd;clip-rule:evenodd;stroke-linejoin:round;stroke-miterlimit:2;">    <g transform="matrix(1,0,0,1,-31.1044,-26.0276)">        <rect id="Artboard1" x="31.104" y="26.028" width="182.259" height="51.116" style="fill:none;"></rect>        <clipPath id="_clip1">            <rect id="Artboard11" serif:id="Artboard1" x="31.104" y="26.028" width="182.259" height="51.116"></rect>        </clipPath>        <g clip-path="url(#_clip1)">            <g transform="matrix(1,0,0,1,31.2088,26.0549)">                <path d="M49.626,11.564C49.644,11.632 49.654,11.702 49.654,11.773L49.654,22.745C49.654,23.031 49.5,23.297 49.252,23.439L40.043,28.741L40.043,39.25C40.043,39.536 39.891,39.8 39.643,39.944L20.42,51.01C20.376,51.035 20.328,51.051 20.28,51.068C20.262,51.074 20.245,51.085 20.226,51.09C20.092,51.125 19.95,51.125 19.816,51.09C19.794,51.084 19.774,51.072 19.753,51.064C19.709,51.048 19.663,51.034 19.621,51.01L0.402,39.944C0.154,39.801 0,39.536 -0,39.25L0,6.334C0,6.262 0.01,6.192 0.028,6.124C0.034,6.101 0.048,6.08 0.056,6.057C0.071,6.015 0.085,5.972 0.107,5.933C0.122,5.907 0.144,5.886 0.162,5.862C0.185,5.83 0.206,5.797 0.233,5.769C0.256,5.746 0.286,5.729 0.312,5.709C0.341,5.685 0.367,5.659 0.4,5.64L0.401,5.64L10.011,0.107C10.258,-0.035 10.564,-0.035 10.811,0.107L20.421,5.64L20.423,5.64C20.455,5.66 20.482,5.685 20.511,5.708C20.537,5.728 20.566,5.746 20.589,5.768C20.617,5.797 20.637,5.83 20.661,5.862C20.678,5.886 20.701,5.907 20.715,5.933C20.738,5.973 20.751,6.015 20.767,6.057C20.775,6.08 20.789,6.101 20.795,6.125C20.813,6.193 20.823,6.263 20.823,6.334L20.823,26.893L28.831,22.282L28.831,11.772C28.831,11.702 28.841,11.631 28.859,11.564C28.866,11.54 28.879,11.519 28.887,11.496C28.903,11.454 28.917,11.411 28.939,11.372C28.954,11.346 28.976,11.325 28.993,11.301C29.017,11.269 29.037,11.236 29.065,11.208C29.088,11.185 29.117,11.168 29.143,11.148C29.173,11.124 29.199,11.098 29.231,11.079L29.232,11.079L38.843,5.546C39.09,5.403 39.396,5.403 39.643,5.546L49.253,11.079C49.287,11.099 49.313,11.124 49.343,11.147C49.368,11.167 49.397,11.185 49.42,11.207C49.448,11.236 49.468,11.269 49.492,11.301C49.51,11.325 49.532,11.346 49.546,11.372C49.569,11.411 49.582,11.454 49.598,11.496C49.607,11.519 49.62,11.54 49.626,11.564ZM48.052,22.282L48.052,13.158L44.689,15.094L40.043,17.769L40.043,26.893L48.053,22.282L48.052,22.282ZM38.442,38.787L38.442,29.657L33.872,32.267L20.822,39.715L20.822,48.931L38.442,38.787ZM1.602,7.719L1.602,38.787L19.22,48.93L19.22,39.716L10.016,34.507L10.013,34.505L10.009,34.503C9.978,34.485 9.952,34.459 9.923,34.437C9.898,34.417 9.869,34.401 9.847,34.379L9.845,34.376C9.819,34.351 9.801,34.32 9.779,34.292C9.759,34.265 9.735,34.242 9.719,34.214L9.718,34.211C9.7,34.181 9.689,34.145 9.676,34.111C9.663,34.081 9.646,34.053 9.638,34.021L9.638,34.02C9.628,33.982 9.626,33.942 9.622,33.903C9.618,33.873 9.61,33.843 9.61,33.813L9.61,12.33L4.965,9.654L1.602,7.72L1.602,7.719ZM10.412,1.725L2.405,6.334L10.41,10.943L18.416,6.333L10.41,1.725L10.412,1.725ZM14.576,30.489L19.221,27.815L19.221,7.719L15.858,9.655L11.212,12.33L11.212,32.426L14.576,30.489ZM39.243,7.164L31.237,11.773L39.243,16.382L47.248,11.772L39.243,7.164ZM38.442,17.769L33.796,15.094L30.433,13.158L30.433,22.282L35.078,24.956L38.442,26.893L38.442,17.769ZM20.02,38.33L31.763,31.626L37.633,28.276L29.633,23.67L20.422,28.973L12.027,33.806L20.02,38.33Z" style="fill:rgb(255,45,32);"></path>            </g>            <g transform="matrix(1,0,0,1,100.114,36.9533)">                <path d="M4.773,0.917L4.773,23.963L13.111,23.963L13.111,27.939L0.333,27.939L0.333,0.917L4.773,0.917ZM28.783,12.382L28.783,9.95L32.991,9.95L32.991,27.94L28.784,27.94L28.784,25.507C28.217,26.408 27.414,27.116 26.371,27.63C25.329,28.145 24.28,28.402 23.225,28.402C21.86,28.402 20.612,28.152 19.48,27.65C18.377,27.169 17.384,26.466 16.565,25.584C15.753,24.707 15.112,23.686 14.675,22.574C14.219,21.418 13.99,20.186 13.998,18.944C13.998,17.684 14.223,16.48 14.674,15.334C15.108,14.214 15.75,13.186 16.565,12.304C17.385,11.423 18.377,10.72 19.48,10.239C20.612,9.737 21.86,9.487 23.225,9.487C24.28,9.487 25.329,9.744 26.371,10.259C27.413,10.774 28.217,11.481 28.784,12.382L28.783,12.382ZM28.397,21.145C28.656,20.441 28.787,19.696 28.784,18.945C28.784,18.172 28.654,17.439 28.397,16.745C28.156,16.077 27.789,15.461 27.317,14.93C26.846,14.409 26.274,13.989 25.637,13.694C24.981,13.386 24.254,13.231 23.457,13.231C22.658,13.231 21.937,13.386 21.294,13.694C20.665,13.993 20.101,14.413 19.634,14.93C19.163,15.458 18.803,16.075 18.574,16.744C18.327,17.451 18.202,18.195 18.206,18.944C18.206,19.716 18.328,20.45 18.573,21.144C18.817,21.84 19.171,22.444 19.635,22.959C20.101,23.476 20.666,23.897 21.295,24.195C21.937,24.504 22.658,24.658 23.456,24.658C24.254,24.658 24.981,24.504 25.637,24.195C26.274,23.9 26.846,23.48 27.317,22.959C27.789,22.429 28.156,21.813 28.397,21.145ZM36.311,27.941L36.311,9.95L47.738,9.95L47.738,14.091L40.518,14.091L40.518,27.941L36.311,27.941ZM62.986,12.382L62.986,9.95L67.194,9.95L67.194,27.94L62.986,27.94L62.986,25.507C62.42,26.408 61.616,27.116 60.573,27.63C59.531,28.145 58.483,28.402 57.427,28.402C56.063,28.402 54.815,28.152 53.683,27.65C52.58,27.169 51.587,26.466 50.768,25.584C49.956,24.707 49.314,23.686 48.877,22.574C48.422,21.418 48.192,20.186 48.201,18.944C48.201,17.684 48.426,16.48 48.877,15.334C49.311,14.214 49.952,13.186 50.767,12.304C51.587,11.423 52.58,10.72 53.683,10.239C54.815,9.737 56.063,9.487 57.427,9.487C58.482,9.487 59.531,9.744 60.573,10.259C61.616,10.774 62.42,11.481 62.986,12.382ZM62.6,21.145C62.859,20.441 62.99,19.695 62.986,18.945C62.986,18.172 62.856,17.439 62.6,16.745C62.359,16.077 61.992,15.461 61.52,14.93C61.049,14.409 60.477,13.989 59.84,13.694C59.184,13.386 58.456,13.231 57.659,13.231C56.861,13.231 56.14,13.386 55.497,13.694C54.868,13.993 54.304,14.413 53.837,14.93C53.366,15.458 53.005,16.075 52.776,16.744C52.529,17.451 52.405,18.195 52.409,18.944C52.409,19.716 52.53,20.45 52.776,21.144C53.02,21.84 53.374,22.444 53.837,22.959C54.303,23.476 54.868,23.897 55.497,24.195C56.14,24.504 56.861,24.658 57.659,24.658C58.456,24.658 59.184,24.504 59.84,24.195C60.477,23.9 61.049,23.48 61.52,22.959C61.992,22.429 62.359,21.813 62.6,21.145ZM84.063,9.95L88.325,9.95L81.42,27.94L76.13,27.94L69.224,9.95L73.486,9.95L78.775,23.726L84.063,9.95ZM97.503,9.487C103.232,9.487 107.139,14.565 106.405,20.508L92.446,20.508C92.446,22.06 94.013,25.06 97.734,25.06C100.934,25.06 103.079,22.245 103.08,22.243L105.923,24.443C103.381,27.156 101.3,28.403 98.041,28.403C92.218,28.403 88.271,24.719 88.271,18.945C88.271,13.722 92.35,9.487 97.502,9.487L97.503,9.487ZM92.457,17.381L102.541,17.381C102.51,17.035 101.963,12.829 97.469,12.829C92.974,12.829 92.489,17.035 92.457,17.381ZM109.145,27.939L109.145,0.917L113.353,0.917L113.353,27.939L109.145,27.939Z" style="fill:rgb(255,45,32);"></path>            </g>        </g>    </g></svg>