<svg width="125" height="128" viewBox="0 0 125 128" fill="none" xmlns="http://www.w3.org/2000/svg">
<path d="M25.5051 0.110712C25.3051 0.188712 19.6851 3.39071 13.0181 7.22271C4.94014 11.8667 0.791135 14.3127 0.569135 14.5427C0.379135 14.7677 0.229135 15.0247 0.131135 15.3027C-0.0358651 15.8667 -0.0478651 98.2877 0.121135 98.8807C0.182135 99.1107 0.381135 99.4487 0.561135 99.6347C0.997135 100.095 49.2251 127.825 49.8111 127.959C50.0831 128.024 50.3881 128.013 50.6911 127.929C51.3491 127.764 99.4511 100.095 99.8791 99.6427C100.054 99.4477 100.254 99.1107 100.319 98.8817C100.403 98.6087 100.434 94.3017 100.434 85.2267V71.9667L112.16 65.2317C123.216 58.8747 123.893 58.4767 124.177 58.0407L124.467 57.5707V43.2877C124.467 27.7397 124.497 28.6147 123.882 28.0527C123.717 27.9067 118.084 24.6197 111.352 20.7427L99.1241 13.7107H97.7651L85.8021 20.5807C79.2161 24.3687 73.6181 27.6077 73.3451 27.7837C73.0731 27.9637 72.7481 28.2957 72.6151 28.5367L72.3731 28.9537L72.3191 42.4087L72.2711 55.8687L62.3921 61.5587C56.9581 64.6827 52.4351 67.2687 52.3391 67.2927C52.1641 67.3417 52.1521 66.0607 52.1521 41.3267V15.2937L51.8921 14.8467C51.5661 14.3017 53.0281 15.1707 38.3481 6.73271C26.0371 -0.347288 26.3331 -0.199288 25.5051 0.110712ZM36.8221 10.4177C41.9721 13.3727 46.1861 15.8177 46.1861 15.8477C46.1861 15.8787 41.6701 18.4887 36.1511 21.6607L26.1101 27.4257L16.0871 21.6617C10.5801 18.4887 6.06714 15.8787 6.06714 15.8477C6.06714 15.8177 10.5721 13.2077 16.0801 10.0427L26.0791 4.29071L26.7691 4.66671C30.1261 6.57371 33.4771 8.49071 36.8221 10.4177ZM108.49 23.6787C113.912 26.8007 118.398 29.3807 118.44 29.4227C118.554 29.5257 98.6661 40.9577 98.3941 40.9457C98.1221 40.9377 78.4791 29.6107 78.4871 29.4727C78.4971 29.3157 98.2601 17.9457 98.4601 17.9767C98.5511 17.9987 103.067 20.5667 108.49 23.6787ZM14.5341 25.3287L24.0921 30.8317L24.1471 58.0787L24.1971 85.3307L24.4301 85.6987C24.5521 85.8927 24.7821 86.1577 24.9501 86.2797C25.1081 86.3947 30.4271 89.4257 36.7681 93.0037L48.2881 99.5097V111.037C48.2881 117.363 48.2451 122.553 48.1911 122.553C48.1501 122.553 38.1911 116.854 26.0671 109.877L4.02714 97.2017L3.99713 58.2357L3.97813 19.2817L4.46814 19.5527C4.75114 19.7027 9.27514 22.3007 14.5331 25.3277L14.5341 25.3287ZM48.2881 44.5087V69.6177L47.9011 69.8707C47.3761 70.2027 28.2341 81.2057 28.1691 81.2057C28.1391 81.2057 28.1151 69.8697 28.1151 56.0127L28.1271 30.8307L38.1271 25.0787C43.6261 21.9137 48.1611 19.3457 48.2151 19.3647C48.2541 19.3887 48.2881 30.7047 48.2881 44.5087ZM86.4381 38.7337L96.4611 44.4967V55.9207C96.4611 66.7587 96.4501 67.3407 96.2851 67.2777C96.1781 67.2367 91.6431 64.6377 86.2021 61.5037L76.2921 55.8137V44.3937C76.2921 38.1067 76.3241 32.9697 76.3541 32.9697C76.3971 32.9697 80.9311 35.5617 86.4381 38.7337ZM120.602 44.3207C120.602 50.5747 120.56 55.7327 120.518 55.7827C120.446 55.8977 100.622 67.3207 100.496 67.3207C100.465 67.3207 100.434 62.1857 100.434 55.8977V44.4777L110.434 38.7217C115.941 35.5617 120.476 32.9697 120.518 32.9697C120.571 32.9697 120.602 38.0747 120.602 44.3207ZM94.2271 70.9337L50.2391 96.0407L30.2901 84.6937C30.2901 84.6937 74.2341 59.2777 74.4101 59.3437L94.2271 70.9337ZM96.4421 85.7607L96.4081 97.2027L74.3801 109.879C62.2601 116.855 52.2981 122.554 52.2481 122.554C52.1951 122.554 52.1531 117.896 52.1531 111.038V99.5107L74.2331 86.9187C86.3651 79.9957 96.3341 74.3287 96.3871 74.3167C96.4301 74.3167 96.4491 79.4647 96.4411 85.7597L96.4421 85.7607Z" fill="#F0513F"/>
</svg>
