<svg xmlns="http://www.w3.org/2000/svg" xmlns:xlink="http://www.w3.org/1999/xlink" xmlns:serif="http://www.serif.com/" width="100%" height="100%" viewBox="0 0 512 512" xml:space="preserve" style="fill-rule:evenodd;clip-rule:evenodd;stroke-linejoin:round;stroke-miterlimit:2;">    <g transform="matrix(2.16743,0,0,2.16743,-0.121918,0.593765)">        <rect id="Artboard1" x="0.056" y="-0.274" width="236.225" height="236.225" style="fill:none;"></rect>        <clipPath id="_clip1">            <rect id="Artboard11" serif:id="Artboard1" x="0.056" y="-0.274" width="236.225" height="236.225"></rect>        </clipPath>        <g clip-path="url(#_clip1)">            <g id="monogram" transform="matrix(2.16743,0,0,2.16743,-0.121918,-0.406235)">                <g id="square" transform="matrix(1.10487,0,0,1.10487,-0.335379,-0.356548)">                    <path d="M90.329,99.022l-81.258,0c-4.8,0 -8.693,-3.893 -8.693,-8.693l-0,-81.258c-0,-4.8 3.893,-8.693 8.693,-8.693l81.258,-0c4.8,-0 8.693,3.893 8.693,8.693l0,81.258c0,4.8 -3.893,8.693 -8.693,8.693Z" style="fill:rgb(249,157,42);fill-rule:nonzero;"></path>                </g>                <g id="a" transform="matrix(1.10487,0,0,1.10487,-0.335379,-0.482557)">                    <path d="M94.487,87.684l-0,-26.003c-0,-6.274 -5.292,-11.679 -11.603,-11.679l-25.738,0c-6.312,0 -11.603,5.443 -11.603,11.679l-0,25.851c-0,6.237 5.366,11.604 11.602,11.604l25.739,0l-0,-7.068l-25.738,0c-2.54,0 -4.536,-2.112 -4.536,-4.61l0,-25.776c0,-2.499 1.981,-4.611 4.536,-4.611l25.738,-0c2.543,-0 4.535,2.116 4.535,4.611l0,26.002c0,4.989 3.134,8.734 6.997,10.434c2.302,-1.206 3.986,-3.443 4.461,-6.087c-2.275,-0.203 -4.126,-2.094 -4.39,-4.347Z" style="fill:white;fill-rule:nonzero;"></path>                </g>            </g>        </g>    </g></svg>