<svg xmlns="http://www.w3.org/2000/svg" xmlns:xlink="http://www.w3.org/1999/xlink" id="Layer_1" x="0px" y="0px" viewBox="0 0 128 15.9" style="enable-background:new 0 0 128 15.9;" xml:space="preserve"><style type="text/css">	.st0{fill:url(#SVGID_1_);}	.st1{fill:#2D3748;}</style><linearGradient id="SVGID_1_" gradientUnits="userSpaceOnUse" x1="-216.3635" y1="-99.6914" x2="-215.3625" y2="-99.6914" gradientTransform="matrix(27.1676 5.6391 9.3985 -16.3006 6814.3047 -399.8722)">	<stop offset="0" style="stop-color:#2298BD"></stop>	<stop offset="1" style="stop-color:#0ED7B5"></stop></linearGradient><path class="st0" d="M13.23,0C9.7,0,7.5,1.78,6.62,5.3c1.32-1.77,2.88-2.43,4.62-1.98c1,0.25,1.73,0.98,2.52,1.8 c1.3,1.32,2.8,2.85,6.08,2.85c3.52,0,5.72-1.78,6.6-5.3c-1.32,1.77-2.88,2.43-4.62,1.98c-1-0.25-1.72-0.98-2.52-1.8 C18,1.53,16.5,0,13.23,0z M6.6,7.93c-3.53,0-5.73,1.77-6.6,5.3c1.32-1.78,2.88-2.43,4.62-1.98c1,0.25,1.73,0.98,2.52,1.8 c1.3,1.32,2.8,2.85,6.08,2.85c3.52,0,5.72-1.78,6.6-5.3c-1.32,1.77-2.88,2.43-4.62,1.97c-1-0.25-1.72-0.97-2.52-1.8 C11.4,9.45,9.9,7.93,6.6,7.93z"></path><path class="st1" d="M39.68,6.68h-2.3v4.48c0,1.2,0.77,1.17,2.3,1.1v1.8c-3.1,0.38-4.32-0.48-4.32-2.9V6.68h-1.7V4.75h1.7v-2.5 l2-0.6v3.1h2.3v1.93H39.68z M48.48,4.75h2v9.3h-2V12.7c-0.7,0.98-1.8,1.58-3.25,1.58c-2.53,0-4.62-2.15-4.62-4.9 c0-2.77,2.1-4.9,4.62-4.9c1.45,0,2.55,0.6,3.25,1.57L48.48,4.75z M45.52,12.38c1.68,0,2.95-1.25,2.95-2.97 c0-1.73-1.28-2.98-2.95-2.98c-1.67,0-2.95,1.25-2.95,2.98C42.6,11.13,43.85,12.38,45.52,12.38L45.52,12.38z M53.82,3.35 c-0.7,0-1.27-0.6-1.27-1.28c0-0.7,0.57-1.27,1.27-1.27c0.7,0,1.28,0.57,1.28,1.27C55.12,2.75,54.52,3.35,53.82,3.35z M52.82,14.05 v-9.3h2v9.3H52.82z M57.15,14.05V0.48h2v13.57L57.15,14.05z M72.23,4.75h2.12l-2.93,9.3h-1.98l-1.93-6.27l-1.95,6.27H63.6l-2.93-9.3 h2.12l1.8,6.42l1.95-6.43h1.93l1.92,6.43L72.23,4.75z M76.82,3.35c-0.7,0-1.27-0.6-1.27-1.28c0-0.7,0.57-1.27,1.27-1.27 c0.7,0,1.28,0.57,1.28,1.27C78.12,2.75,77.55,3.35,76.82,3.35L76.82,3.35z M75.82,14.05v-9.3h2v9.3H75.82z M85.05,4.5 c2.07,0,3.57,1.42,3.57,3.82v5.73h-2v-5.5c0-1.43-0.82-2.15-2.07-2.15c-1.32,0-2.38,0.77-2.38,2.67v5h-2v-9.3h2v1.2 C82.8,4.98,83.8,4.5,85.05,4.5L85.05,4.5z M98.18,1.03h2v13.02h-2V12.7c-0.7,0.98-1.8,1.58-3.25,1.58c-2.53,0-4.62-2.15-4.62-4.9 c0-2.77,2.1-4.9,4.62-4.9c1.45,0,2.55,0.6,3.25,1.57V1.03z M95.23,12.38c1.67,0,2.95-1.25,2.95-2.97c0-1.73-1.28-2.98-2.95-2.98 c-1.68,0-2.95,1.25-2.95,2.98C92.27,11.13,93.55,12.38,95.23,12.38L95.23,12.38z M106.9,14.3c-2.8,0-4.92-2.15-4.92-4.9 c0-2.78,2.1-4.9,4.92-4.9c1.83,0,3.4,0.95,4.15,2.4l-1.73,1c-0.4-0.88-1.32-1.43-2.45-1.43c-1.65,0-2.88,1.25-2.88,2.93 c0,1.67,1.25,2.92,2.88,2.92c1.12,0,2.02-0.57,2.48-1.42l1.72,0.97C110.32,13.35,108.73,14.3,106.9,14.3z M114.43,7.3 c0,1.7,5,0.68,5,4.12c0,1.85-1.62,2.88-3.62,2.88c-1.85,0-3.2-0.85-3.8-2.18l1.73-1c0.3,0.85,1.05,1.35,2.07,1.35 c0.9,0,1.57-0.3,1.57-1.05c0-1.65-5-0.73-5-4.05c0-1.75,1.5-2.85,3.4-2.85c1.53,0,2.8,0.7,3.45,1.92l-1.7,0.95 c-0.32-0.73-0.97-1.05-1.75-1.05C115.05,6.32,114.43,6.65,114.43,7.3z M123,7.3c0,1.7,5,0.68,5,4.12c0,1.85-1.62,2.88-3.62,2.88 c-1.85,0-3.2-0.85-3.8-2.18l1.73-1c0.3,0.85,1.05,1.35,2.07,1.35c0.9,0,1.57-0.3,1.57-1.05c0-1.65-5-0.73-5-4.05 c0-1.75,1.5-2.85,3.4-2.85c1.52,0,2.8,0.7,3.45,1.92l-1.7,0.95c-0.33-0.73-0.98-1.05-1.75-1.05C123.62,6.32,123,6.65,123,7.3z"></path></svg>